<?xml version="1.0" standalone="no"?>
<!DOCTYPE svg PUBLIC "-//W3C//DTD SVG 1.1//EN" "http://www.w3.org/Graphics/SVG/1.1/DTD/svg11.dtd" >
<svg>
<metadata>
Created by FontForge 20090914 at Wed Feb 12 11:32:07 2014
 By www-data
Copyright (c) 1989 Adobe Systems Incorporated.  All Rights Reserved.Bauhaus is a registered trademark of International Typeface Corporation.
</metadata>
<defs>
<font id="ITCBauhaus-Light" horiz-adv-x="556" >
  <font-face 
    font-family="ITCBauhaus-Light"
    font-weight="300"
    font-stretch="normal"
    units-per-em="1000"
    panose-1="2 11 4 0 0 0 0 0 0 0"
    ascent="800"
    descent="-200"
    x-height="474"
    cap-height="700"
    bbox="-66 -228 1000 935"
    underline-thickness="50"
    underline-position="-50"
    unicode-range="U+0020-U+2122"
  />
<missing-glyph horiz-adv-x="502" 
d="M-1 0h500v500h-500v-500zM9 10v480h480v-480h-480z" />
    <glyph glyph-name=".notdef" horiz-adv-x="502" 
d="M-1 0h500v500h-500v-500zM9 10v480h480v-480h-480z" />
    <glyph glyph-name="space" unicode=" " horiz-adv-x="278" 
 />
    <glyph glyph-name="exclam" unicode="!" horiz-adv-x="222" 
d="M125 138v574h-38v-574h38zM68 32c0 -10.667 3.66699 -19.667 11 -27s16.333 -11 27 -11s19.667 3.66699 27 11s11 16.333 11 27s-3.66699 19.667 -11 27s-16.333 11 -27 11s-19.667 -3.66699 -27 -11s-11 -16.333 -11 -27z" />
    <glyph glyph-name="quotedbl" unicode="&#x22;" horiz-adv-x="333" 
d="M98 474h38v226h-38v-226zM198 474h38v226h-38v-226z" />
    <glyph glyph-name="numbersign" unicode="#" 
d="M493 272h-105l22 162h115l-4 40h-106l32 226h-42l-32 -226h-149l32 226h-42l-32 -226h-123l4 -40h114l-22 -162h-124l4 -40h114l-32 -232h42l32 232h149l-32 -232h42l32 232h115zM368 434l-22 -162h-149l22 162h149z" />
    <glyph glyph-name="dollar" unicode="$" 
d="M319 387c24 -6.66699 44.5 -13.499 61.5 -20.499s32.333 -15.5 46 -25.5s24.5 -22.833 32.5 -38.5s12 -34.167 12 -55.5c0 -36 -13.167 -63.333 -39.5 -82s-63.833 -28.334 -112.5 -29.001v251zM281 437.001c-44.667 13.333 -78.667 28.8311 -102 46.498
s-35 43.834 -35 78.501c0 20.667 3.33301 37.834 10 51.501s16.167 24.167 28.5 31.5s26.5 12.333 42.5 15s34.667 4 56 4v-227zM319 699.999l0.000976562 65.999h-38v-66h-19c-45.333 0 -82.666 -11.5 -111.999 -34.5s-44 -56.5 -44 -100.5
c0 -26.667 4.66699 -49.5 14 -68.5s22.166 -34.667 38.499 -47s34.166 -22.166 53.499 -29.499s42.333 -14.666 69 -21.999v-262h-175v-36h175v-100h38v100c60 0 106.667 12.833 140 38.5s50 63.5 50 113.5c0 28 -5.16699 51.667 -15.5 71s-24.333 35.166 -42 47.499
s-36.5 22.333 -56.5 30s-45 16.167 -75 25.5h-1v238h155v36h-155z" />
    <glyph glyph-name="percent" unicode="%" horiz-adv-x="889" 
d="M220 712c-20 0 -39.167 -3.83203 -57.5 -11.499s-34.5 -18.334 -48.5 -32.001s-25 -29.667 -33 -48s-12 -37.5 -12 -57.5s4 -39.167 12 -57.5s19 -34.333 33 -48s30.167 -24.334 48.5 -32.001s37.5 -11.5 57.5 -11.5s39.167 3.83301 57.5 11.5s34.5 18.5 48.5 32.5
s25 30 33 48s12 37 12 57s-4 39.167 -12 57.5s-19 34.333 -33 48s-30.167 24.334 -48.5 32.001s-37.5 11.5 -57.5 11.5zM331 563.001c0 -30.667 -10.667 -56.834 -32 -78.501s-47.666 -32.5 -78.999 -32.5s-57.666 10.833 -78.999 32.5s-32 47.834 -32 78.501
s10.667 56.834 32 78.501s47.666 32.5 78.999 32.5s57.666 -10.833 78.999 -32.5s32 -47.834 32 -78.501zM640 286.001c-20 0 -39.167 -3.83203 -57.5 -11.499s-34.5 -18.334 -48.5 -32.001s-25 -29.667 -33 -48s-12 -37.5 -12 -57.5s4 -39.167 12 -57.5s19 -34.333 33 -48
s30.167 -24.334 48.5 -32.001s37.5 -11.5 57.5 -11.5s39.167 3.83301 57.5 11.5s34.5 18.5 48.5 32.5s25 30 33 48s12 37 12 57s-4 39.167 -12 57.5s-19 34.333 -33 48s-30.167 24.334 -48.5 32.001s-37.5 11.5 -57.5 11.5zM751 137.002
c0 -30.667 -10.667 -56.834 -32 -78.501s-47.666 -32.5 -78.999 -32.5s-57.666 10.833 -78.999 32.5s-32 47.834 -32 78.501s10.667 56.834 32 78.501s47.666 32.5 78.999 32.5s57.666 -10.833 78.999 -32.5s32 -47.834 32 -78.501zM216 -11.998l464 724h-39l-462 -724h37z
" />
    <glyph glyph-name="ampersand" unicode="&#x26;" horiz-adv-x="667" 
d="M523 101c-30 -29.333 -60.5 -49.168 -91.5 -59.501s-68.833 -15.5 -113.5 -15.5c-39.333 0 -74.833 6.33301 -106.5 19s-58.5 30.334 -80.5 53.001c-43.333 45.333 -65 103 -65 173c0 46 11.333 86.333 34 121s54.667 62.667 96 84zM230 699.998
c-35.333 -0.666992 -63.167 -7.83203 -83.5 -21.499s-30.5 -35.167 -30.5 -64.5c0 -18.667 3.16699 -35 9.5 -49s20.833 -35 43.5 -63c-22 -13.333 -41.333 -27.166 -58 -41.499s-31.5 -30.833 -44.5 -49.5s-23 -40.5 -30 -65.5s-10.5 -53.167 -10.5 -84.5
c0 -46 8.5 -86.333 25.5 -121s39.667 -63.334 68 -86.001s59.5 -39.334 93.5 -50.001s68.333 -16 103 -16c50 0 93.167 6.5 129.5 19.5s70.833 34.833 103.5 65.5l57 -73h49l-81 100c16.667 21.333 29.334 46.333 38.001 75s13 57.667 13 87c0 47.333 -8 88 -24 122
s-42.333 65.667 -79 95l-25 -25c30 -24.667 52.167 -50.834 66.5 -78.501s21.5 -62.167 21.5 -103.5c0 -28.667 -2.83301 -54.334 -8.5 -77.001s-14.834 -44 -27.501 -64l-331 374c-23.333 26.667 -39.833 47.334 -49.5 62.001s-14.5 29.334 -14.5 44.001
c0 19.333 4.66699 33 14 41s26 12 50 12h282v36h-270z" />
    <glyph glyph-name="quotesingle" unicode="'" horiz-adv-x="222" 
d="M92 474h38v226h-38v-226z" />
    <glyph glyph-name="parenleft" unicode="(" horiz-adv-x="389" 
d="M333 712c-67.333 -53.333 -120.332 -118.5 -158.999 -195.5s-58 -161.5 -58 -253.5c0 -44 5.16699 -87.333 15.5 -130s25.166 -83.667 44.499 -123s43 -75.666 71 -108.999s59.333 -62.333 94 -87l19 23c-63.333 50.667 -113.5 114 -150.5 190s-55.5 154.667 -55.5 236
c0 86 17 164.167 51 234.5s83 134.166 147 191.499z" />
    <glyph glyph-name="parenright" unicode=")" horiz-adv-x="389" 
d="M37 689c64 -57.333 113 -121.166 147 -191.499s51 -148.5 51 -234.5c0 -81.333 -18.5 -160 -55.5 -236s-87.167 -139.333 -150.5 -190l19 -23c34.667 24.667 66 53.667 94 87s51.833 69.666 71.5 108.999s34.5 80.333 44.5 123s15 86 15 130
c0 92 -19.333 176.5 -58 253.5s-91.667 142.167 -159 195.5z" />
    <glyph glyph-name="asterisk" unicode="*" horiz-adv-x="500" 
d="M416 608l-18 24l-133 -80v148h-30v-148l-133 80l-18 -24l138 -82l-138 -82l18 -25l133 79v-158h30v158l133 -79l18 25l-138 82z" />
    <glyph glyph-name="plus" unicode="+" horiz-adv-x="600" 
d="M281 257h-217v-40h217v-217h40v217h215v40h-215v217h-40v-217z" />
    <glyph glyph-name="comma" unicode="," horiz-adv-x="278" 
d="M78 -82h40l50 154h-49z" />
    <glyph glyph-name="hyphen" unicode="-" horiz-adv-x="333" 
d="M262 218v38h-190v-38h190z" />
    <glyph glyph-name="period" unicode="." horiz-adv-x="278" 
d="M96 32c0 -10.667 3.66699 -19.667 11 -27s16.333 -11 27 -11s19.667 3.66699 27 11s11 16.333 11 27s-3.66699 19.667 -11 27s-16.333 11 -27 11s-19.667 -3.66699 -27 -11s-11 -16.333 -11 -27z" />
    <glyph glyph-name="slash" unicode="/" horiz-adv-x="278" 
d="M1 -12h41l236 724h-41z" />
    <glyph glyph-name="zero" unicode="0" 
d="M508 462c0 75.333 -20.167 135.833 -60.5 181.5s-96.833 68.5 -169.5 68.5s-129.167 -22.833 -169.5 -68.5s-60.5 -106.167 -60.5 -181.5v-224c0 -75.333 20.167 -135.833 60.5 -181.5s96.833 -68.5 169.5 -68.5s129.167 22.833 169.5 68.5s60.5 106.167 60.5 181.5v224z
M92 474c0 59.333 16.5 107.166 49.5 143.499s78.5 54.5 136.5 54.5s103.5 -18.167 136.5 -54.5s49.5 -84.166 49.5 -143.499v-248c0 -59.333 -16.5 -107.166 -49.5 -143.499s-78.5 -54.5 -136.5 -54.5s-103.5 18.167 -136.5 54.5s-49.5 84.166 -49.5 143.499v248z" />
    <glyph glyph-name="one" unicode="1" 
d="M146 664h117v-664h38v700h-146z" />
    <glyph glyph-name="two" unicode="2" 
d="M502 40l-395.999 -0.00195312c-8 0 -12 3 -12 9c0 7.33301 8 17.666 24 30.999s43.667 34 83 62l110.5 83c29.667 23.333 59.167 49.5 88.5 78.5s53.333 59.167 72 90.5s28 62 28 92c0 40.667 -6 75.5 -18 104.5s-28.667 52.5 -50 70.5s-45.333 31 -72 39
s-55.334 12 -86.001 12c-72 0 -127.667 -19.667 -167 -59s-59 -93 -59 -161c0 -30 6 -57.167 18 -81.5s27.333 -44.666 46 -60.999s38 -28.666 58 -36.999s37.667 -12.5 53 -12.5c6.66699 0 14.334 2.66699 23.001 8s18.667 12 30 20l1 1l-2 3
c-8 -1.33301 -16.333 -2 -25 -2c-22 0 -42.833 4.66699 -62.5 14s-36.5 21.833 -50.5 37.5s-25 33 -33 52s-12 37.833 -12 56.5c0 55.333 15.667 99.5 47 132.5s76.333 49.5 135 49.5s103.667 -16.667 135 -50s47 -78.666 47 -135.999c0 -24.667 -7.5 -49.834 -22.5 -75.501
s-34.833 -50.667 -59.5 -75s-50.167 -46.833 -76.5 -67.5l-100.5 -76c-50.667 -36.667 -87.834 -65.5 -111.501 -86.5s-35.5 -39.167 -35.5 -54.5s3.83301 -27.666 11.5 -36.999s18.5 -14 32.5 -14h408v40z" />
    <glyph glyph-name="three" unicode="3" 
d="M63 664h319c6.66699 0 10 -3.33301 10 -10c0 -8 -6 -17.667 -18 -29l-237 -228v-27h125c58 0 102.833 -15.5 134.5 -46.5s47.5 -72.833 47.5 -125.5c0 -46.667 -15.667 -85 -47 -115s-69.666 -45 -114.999 -45h-224v-38h200c71.333 0 127.5 18 168.5 54s61.5 88 61.5 156
c0 58 -19.167 105.833 -57.5 143.5s-90.5 56.5 -156.5 56.5h-75l212 200c16.667 15.333 25 33 25 53c0 12 -3.83301 21.167 -11.5 27.5s-21.834 9.5 -42.501 9.5h-319v-36z" />
    <glyph glyph-name="four" unicode="4" 
d="M364 198l0.000976562 -198.001h37v198h119v36h-119v478l-2 -2l-36 -48v-428h-282c-10 0 -15 4.33301 -15 13c0 5.33301 1.33301 10.333 4 15v1l274 449h-45l-238 -390l-1 -1c-16 -27.333 -26.333 -45.666 -31 -54.999s-7 -18.333 -7 -27
c0 -12.667 4.16699 -22.667 12.5 -30s21.166 -11 38.499 -11h291z" />
    <glyph glyph-name="five" unicode="5" 
d="M128 412l-0.000976562 252.001h307v36h-347v-328h176c56.667 0 99.834 -15.5 129.501 -46.5s45.167 -70.833 46.5 -119.5c0 -46.667 -15.167 -86 -45.5 -118s-74.5 -48 -132.5 -48h-196v-40h182c75.333 0 133.5 19.167 174.5 57.5s61.5 86.166 61.5 143.499
c0 59.333 -18.833 109.333 -56.5 150s-90.167 61 -157.5 61h-142z" />
    <glyph glyph-name="six" unicode="6" 
d="M289 700l-160.998 -242.998c-34.667 -52 -58.667 -92.667 -72 -122s-20 -64.666 -20 -105.999c0 -37.333 6.66699 -71.166 20 -101.499s31.5 -55.833 54.5 -76.5s49 -36.334 78 -47.001s58.833 -16 89.5 -16s60.5 5.66699 89.5 17s55 27.666 78 48.999
s41.167 47.166 54.5 77.499s20 63.5 20 99.5c0 37.333 -6.66699 71.166 -20 101.499s-31.5 55.833 -54.5 76.5s-48.833 36.5 -77.5 47.5s-58.667 16.833 -90 17.5c-10 0 -19.167 -0.5 -27.5 -1.5s-17.833 -3.16699 -28.5 -6.5l-29 -46c23.333 9.33301 51.666 14 84.999 14
c25.333 0 50 -4.83301 74 -14.5s45.333 -23.5 64 -41.5s33.334 -39.5 44.001 -64.5s16 -52.5 16 -82.5s-5.33301 -57.667 -16 -83s-25.334 -47 -44.001 -65s-39.834 -31.667 -63.501 -41s-48.5 -14 -74.5 -14c-25.333 0 -50 4.66699 -74 14s-45.333 22.833 -64 40.5
s-33.334 39 -44.001 64s-16 52.5 -16 82.5c0 20.667 1.33301 38.5 4 53.5s6.83398 29.333 12.501 43s13.167 28.5 22.5 44.5s22 35.667 38 59l182 271h-50z" />
    <glyph glyph-name="seven" unicode="7" 
d="M37 664l422.001 0.000976562c13.333 0 20 -5 20 -15c0 -3.33301 -1.5 -8.5 -4.5 -15.5l-10.5 -23.5l-271 -610h46l258 583l2 5c7.33301 16 12.5 28.667 15.5 38s4.5 19 4.5 29c0 15.333 -4.83301 26.666 -14.5 33.999s-25.834 11 -48.501 11h-419v-36z" />
    <glyph glyph-name="eight" unicode="8" 
d="M351 404c33.333 12 59.6699 29.833 79.0029 53.5s29 54.5 29 92.5c0 48.667 -16.333 87.834 -49 117.501s-76.667 44.5 -132 44.5s-99.333 -14.833 -132 -44.5s-49 -68.834 -49 -117.501c0 -38 9.66699 -68.833 29 -92.5s45.666 -41.5 78.999 -53.5v-2
c-45.333 -8 -83.166 -30.167 -113.499 -66.5s-45.5 -79.5 -45.5 -129.5c0 -35.333 6.5 -66.833 19.5 -94.5s30.667 -50.5 53 -68.5s47.166 -31.667 74.499 -41s55.666 -14 84.999 -14s57.666 4.66699 84.999 14s52.166 23 74.499 41s40 40.833 53 68.5
s19.5 59.167 19.5 94.5c0 50 -15.167 93.167 -45.5 129.5s-68.166 58.5 -113.499 66.5v2zM278.004 380c23.333 0 46.1689 -3.83301 68.502 -11.5s42.5 -19 60.5 -34s32.333 -33.5 43 -55.5s16 -46.333 16 -73c0 -28.667 -5.16699 -54.5 -15.5 -77.5s-24.333 -42.333 -42 -58
s-37.834 -27.667 -60.501 -36s-46 -12.5 -70 -12.5s-47.333 4.16699 -70 12.5s-42.834 20.333 -60.501 36s-31.667 35 -42 58s-15.5 48.833 -15.5 77.5c0 26.667 5.33301 51 16 73s25.167 40.5 43.5 55.5s38.5 26.333 60.5 34s44.667 11.5 68 11.5zM415.007 550
c0 -37.333 -11.833 -69.333 -35.5 -96s-57.5 -40 -101.5 -40s-77.833 13.333 -101.5 40s-35.5 58.667 -35.5 96c0 40 12.167 71.333 36.5 94s57.833 34 100.5 34c43.333 0 77 -11.333 101 -34s36 -54 36 -94z" />
    <glyph glyph-name="nine" unicode="9" 
d="M267 0l160.996 242.995c34.667 52 58.667 92.833 72 122.5s20 64.834 20 105.501c0 38 -6.66699 72 -20 102s-31.5 55.333 -54.5 76s-49 36.334 -78 47.001s-58.833 16 -89.5 16s-60.5 -5.66699 -89.5 -17s-55 -27.666 -78 -48.999s-41.167 -47.166 -54.5 -77.499
s-20 -63.5 -20 -99.5c0 -37.333 6.66699 -71.166 20 -101.499s31.5 -55.833 54.5 -76.5s48.833 -36.5 77.5 -47.5s58.667 -16.833 90 -17.5c10 0 19.167 0.5 27.5 1.5s17.833 3.16699 28.5 6.5l29 46c-23.333 -9.33301 -51.666 -14 -84.999 -14
c-25.333 0 -49.833 4.83301 -73.5 14.5s-45 23.5 -64 41.5s-33.833 39.5 -44.5 64.5s-16 52.5 -16 82.5c0 30.667 5.33301 58.5 16 83.5s25.334 46.5 44.001 64.5s39.834 31.667 63.501 41s48.5 14 74.5 14c25.333 0 50 -4.66699 74 -14s45.333 -22.833 64 -40.5
s33.334 -39 44.001 -64s16 -52.5 16 -82.5c0 -20.667 -1.16699 -38.5 -3.5 -53.5s-6.5 -29.333 -12.5 -43s-13.667 -28.5 -23 -44.5s-22 -35.667 -38 -59l-182 -271h50z" />
    <glyph glyph-name="colon" unicode=":" horiz-adv-x="278" 
d="M96 32c0 -10.667 3.66699 -19.667 11 -27s16.333 -11 27 -11s19.667 3.66699 27 11s11 16.333 11 27s-3.66699 19.667 -11 27s-16.333 11 -27 11s-19.667 -3.66699 -27 -11s-11 -16.333 -11 -27zM96 350c0 -10.667 3.66699 -19.667 11 -27s16.333 -11 27 -11
s19.667 3.66699 27 11s11 16.333 11 27s-3.66699 19.667 -11 27s-16.333 11 -27 11s-19.667 -3.66699 -27 -11s-11 -16.333 -11 -27z" />
    <glyph glyph-name="semicolon" unicode=";" horiz-adv-x="278" 
d="M78 -82h40l50 154h-49zM96 350c0 -10.667 3.66699 -19.667 11 -27s16.333 -11 27 -11s19.667 3.66699 27 11s11 16.333 11 27s-3.66699 19.667 -11 27s-16.333 11 -27 11s-19.667 -3.66699 -27 -11s-11 -16.333 -11 -27z" />
    <glyph glyph-name="less" unicode="&#x3c;" horiz-adv-x="600" 
d="M536 481l-472 -219v-50l472 -219v44l-432 200l432 200v44z" />
    <glyph glyph-name="equal" unicode="=" horiz-adv-x="600" 
d="M536 125v40h-472v-40h472zM536 309v40h-472v-40h472z" />
    <glyph glyph-name="greater" unicode="&#x3e;" horiz-adv-x="600" 
d="M64 437l432 -200l-432 -200v-44l472 219v50l-472 219v-44z" />
    <glyph glyph-name="question" unicode="?" horiz-adv-x="444" 
d="M62 514c0 44.667 14.834 82.5 44.501 113.5s68.167 46.5 115.5 46.5s85.833 -15.5 115.5 -46.5s44.5 -68.833 44.5 -113.5c0 -32.667 -5.5 -60.334 -16.5 -83.001s-25.833 -40.167 -44.5 -52.5s-39.334 -21.166 -62.001 -26.499s-47 -8 -73 -8v-216h38v180
c22.667 0 45.5 3.83301 68.5 11.5s44.333 19.667 64 36s35.5 37.833 47.5 64.5s18 58 18 94c0 56 -18.333 103 -55 141s-85 57 -145 57s-108.333 -19 -145 -57s-55 -85 -55 -141h40zM167.001 32c0 -10.667 3.66699 -19.667 11 -27s16.333 -11 27 -11s19.667 3.66699 27 11
s11 16.333 11 27s-3.66699 19.667 -11 27s-16.333 11 -27 11s-19.667 -3.66699 -27 -11s-11 -16.333 -11 -27z" />
    <glyph glyph-name="at" unicode="@" horiz-adv-x="800" 
d="M331 164c-27.333 0 -49.9961 10.165 -67.9961 30.498s-27 46.833 -27 79.5c0 26 4.66699 54 14 84s22.666 58 39.999 84s37.666 47.167 60.999 63.5s48.333 24.5 75 24.5c21.333 0 41.166 -11 59.499 -33s27.5 -45.667 27.5 -71c0 -24.667 -4.83301 -52.167 -14.5 -82.5
s-22.834 -59.166 -39.501 -86.499s-36.167 -49.666 -58.5 -66.999s-45.5 -26 -69.5 -26zM538.004 481.998c-10.667 28.667 -25.167 49.835 -43.5 63.502s-39.166 20.5 -62.499 20.5c-34 0 -65.667 -8.33301 -95 -25s-54.5 -39 -75.5 -67s-37.167 -59.167 -48.5 -93.5
s-17 -68.833 -17 -103.5c0 -40.667 11.833 -75 35.5 -103s55.5 -42 95.5 -42c23.333 0 46 6.33301 68 19s42.333 28.334 61 47.001l2 2c1.33301 -22.667 8.33301 -40.334 21 -53.001s28.334 -19 47.001 -19c25.333 0 50.833 7.5 76.5 22.5s49.167 36 70.5 63
s38.166 58.667 50.499 95s18.5 74.5 18.5 114.5s-8.33301 77.5 -25 112.5s-39.834 65.833 -69.501 92.5s-64.5 47.334 -104.5 62.001s-82.333 22 -127 22c-48 0 -93.667 -9.33301 -137 -28s-81.666 -44.5 -114.999 -77.5s-59.333 -71.333 -78 -115s-28 -89.834 -28 -138.501
c0 -49.333 9.16699 -96.333 27.5 -141s44 -83.667 77 -117s71.667 -59.5 116 -78.5s91.5 -28.5 141.5 -28.5c63.333 0 123.166 16 179.499 48s99.5 74.667 129.5 128h-41c-29.333 -44.667 -66.666 -79.167 -111.999 -103.5s-98 -36.5 -158 -36.5
c-43.333 0 -84.5 8.33301 -123.5 25s-73.333 40 -103 70s-52.667 64.667 -69 104s-24.5 80.666 -24.5 123.999c0 44.667 8 87 24 127s38.333 75.167 67 105.5s62.5 54 101.5 71s80.833 25.5 125.5 25.5c37.333 0 73.166 -6 107.499 -18s65 -29.333 92 -52
s48.167 -50.167 63.5 -82.5s23 -67.833 23 -106.5c0 -30.667 -4.5 -61.334 -13.5 -92.001s-21.5 -58.5 -37.5 -83.5s-34.167 -44.833 -54.5 -59.5s-41.5 -22 -63.5 -22c-12.667 0 -21.667 4 -27 12s-8 18.667 -8 32c0 16 3.33301 34.333 10 55l96 287h-41z" />
    <glyph glyph-name="A" unicode="A" horiz-adv-x="611" 
d="M546 471c0 75.333 -21.667 134.333 -65 177s-102 64 -176 64s-132.667 -21.333 -176 -64s-65 -101.667 -65 -177v-471h42v484c0 58.667 18.167 105 54.5 139s84.5 51 144.5 51s108.167 -17 144.5 -51s54.5 -80.333 54.5 -139v-106h-358v-36h358v-342h42v471z" />
    <glyph glyph-name="B" unicode="B" 
d="M146 0l166 -0.000976562c67.333 0 119.166 17.833 155.499 53.5s54.5 80.5 54.5 134.5c0 26.667 -4.16699 51.167 -12.5 73.5s-19.666 42 -33.999 59s-29.833 30 -46.5 39s-32.667 13.5 -48 13.5v2c38 12.667 65 33.5 81 62.5s24 63.167 24 102.5
c0 48.667 -17 89.5 -51 122.5s-83.667 49.5 -149 49.5c-72 0 -127 -19.333 -165 -58s-57 -98 -57 -178v-476h42v502c0 56 16 99 48 129s74.333 45 127 45c50.667 0 90.167 -12.167 118.5 -36.5s42.5 -57.5 42.5 -99.5c0 -52.667 -15.667 -91.167 -47 -115.5
s-80.333 -36.5 -147 -36.5h-102v-36h158c56 0 99 -14.667 129 -44s45 -68.666 45 -117.999c0 -46.667 -15.5 -84 -46.5 -112s-78.833 -42 -143.5 -42h-142v-36z" />
    <glyph glyph-name="C" unicode="C" horiz-adv-x="500" 
d="M475 36h-81c-37.333 0 -74.5 6.5 -111.5 19.5s-70.5 32.667 -100.5 59s-53.833 59.333 -71.5 99s-26.5 85.167 -26.5 136.5s8.83301 96.833 26.5 136.5s41.5 72.667 71.5 99s63.5 46 100.5 59s74.167 19.5 111.5 19.5h82v36h-90c-44 0 -86.667 -7.66699 -128 -23
s-78.5 -38.166 -111.5 -68.499s-59 -67.333 -78 -111s-28.5 -92.834 -28.5 -147.501s9.5 -103.834 28.5 -147.501s45 -80.667 78 -111s70.167 -53.166 111.5 -68.499s84 -23 128 -23h89v36z" />
    <glyph glyph-name="D" unicode="D" horiz-adv-x="611" 
d="M106 0l0.000976562 662h94c46.667 0 90 -8 130 -24s74.833 -38.167 104.5 -66.5s52.5 -61.666 68.5 -99.999s24 -78.833 24 -121.5c0 -40.667 -6.5 -79.834 -19.5 -117.501s-32 -71.167 -57 -100.5s-55.5 -52.333 -91.5 -69s-76.333 -25 -121 -25h-97v-38h101
c45.333 -0 88 8.33301 128 25s75.167 40.5 105.5 71.5s53.833 68 70.5 111s25 90.5 25 142.5c0 50.667 -9.5 97.5 -28.5 140.5s-45.167 80.167 -78.5 111.5s-71.333 55.5 -114 72.5s-87.334 25.5 -134.001 25.5h-152v-700h42z" />
    <glyph glyph-name="E" unicode="E" horiz-adv-x="500" 
d="M452 378l-384 -0.000976562c0 34 7.66699 68 23 102s36.833 65 64.5 93s60.334 50.167 98.001 66.5s77.834 24.5 120.501 24.5h78v36h-80c-44 0 -86.667 -7.66699 -128 -23s-78.5 -38.166 -111.5 -68.499s-59 -67.333 -78 -111s-28.5 -92.834 -28.5 -147.501
s9.5 -103.834 28.5 -147.501s45 -80.667 78 -111s70.167 -53.166 111.5 -68.499s84 -23 128 -23h80v36h-64c-36.667 0 -73.834 6.5 -111.501 19.5s-72.334 32.333 -104.001 58s-57 57.834 -76 96.501s-28.5 82.667 -28.5 132h384v36z" />
    <glyph glyph-name="F" unicode="F" horiz-adv-x="444" 
d="M106 332h289.998v36h-290v124c0 50 14 91.167 42 123.5s64.667 48.5 110 48.5h138v36h-152c-22 0 -43.667 -4.5 -65 -13.5s-40.666 -22.167 -57.999 -39.5s-31.166 -39 -41.499 -65s-15.5 -55.333 -15.5 -88v-494h42v332z" />
    <glyph glyph-name="G" unicode="G" horiz-adv-x="778" 
d="M660 597c-32 36.667 -71.998 65.0078 -119.998 85.0078s-98.667 30 -152 30c-48.667 0 -94.667 -9.33301 -138 -28s-81.333 -44.834 -114 -78.501s-58 -72.5 -76 -116.5s-27 -90.333 -27 -139s9 -95 27 -139s43.333 -82.833 76 -116.5s70.667 -59.834 114 -78.501
s89.333 -28 138 -28c46.667 0 91 8.66699 133 26s79.333 42.666 112 75.999s58 73.833 76 121.5s27 101.167 27 160.5h-348v-36h304c-0.666992 -42.667 -8.83398 -82.834 -24.501 -120.501s-37.334 -70.834 -65.001 -99.501s-59.834 -50.834 -96.501 -66.501
s-76 -23.5 -118 -23.5c-43.333 0 -84 8.5 -122 25.5s-71.167 40.5 -99.5 70.5s-50.333 64.667 -66 104s-23.5 80.666 -23.5 123.999s7.83301 84.666 23.5 123.999s37.667 74 66 104s61.5 53.5 99.5 70.5s78.667 25.5 122 25.5c48.667 0 94.334 -9.33301 137.001 -28
s78 -45 106 -79z" />
    <glyph glyph-name="H" unicode="H" horiz-adv-x="611" 
d="M112 0v348h387v-348h42v700h-42v-316h-387v316h-42v-700h42z" />
    <glyph glyph-name="I" unicode="I" horiz-adv-x="222" 
d="M132 0v700h-42v-700h42z" />
    <glyph glyph-name="J" unicode="J" horiz-adv-x="333" 
d="M-15 0h79.001c54.667 0 101.5 16.667 140.5 50s58.5 80 58.5 140v510h-42v-496c0 -29.333 -4.66699 -54.833 -14 -76.5s-21.833 -39 -37.5 -52s-32.834 -22.5 -51.501 -28.5s-38 -9 -58 -9h-75v-38z" />
    <glyph glyph-name="K" unicode="K" 
d="M106 0l0.000976562 348.001h158c71.333 0 123.5 -16.333 156.5 -49s49.5 -82.334 49.5 -149.001v-150h42v150c0 37.333 -5 70 -15 98s-23.667 51.167 -41 69.5s-37 32.166 -59 41.499s-45.333 15 -70 17v2c19.333 4 37 14.333 53 31s31.333 41 46 73l100 218h-47
l-67 -153c-15.333 -33.333 -28.833 -60 -40.5 -80s-24.334 -36.167 -38.001 -48.5s-29.667 -21.166 -48 -26.499s-40.833 -8 -67.5 -8h-112v316h-42v-700h42z" />
    <glyph glyph-name="L" unicode="L" horiz-adv-x="389" 
d="M64 700l0.00195312 -494c0 -32.667 5.16699 -62 15.5 -88s24.166 -47.667 41.499 -65s36.666 -30.5 57.999 -39.5s43 -13.5 65 -13.5h147v36h-133c-45.333 0 -82 16.167 -110 48.5s-42 73.5 -42 123.5v492h-42z" />
    <glyph glyph-name="M" unicode="M" horiz-adv-x="833" 
d="M70 0l86.999 642.996c3.33301 19.333 8 29 14 29c6.66699 0 12.667 -9.66699 18 -29l168 -574c10.667 -34 19 -55.333 25 -64s17.333 -13 34 -13s28.167 4.33301 34.5 13s14.5 30 24.5 64l168 574c5.33301 19.333 11.333 29 18 29c6 0 10.667 -9.66699 14 -29l87 -643h42
l-87 640c-3.33301 24 -8.5 42 -15.5 54s-19.167 18 -36.5 18c-10 0 -18 -0.833008 -24 -2.5s-11.167 -5.16699 -15.5 -10.5s-8.5 -13.166 -12.5 -23.499s-9.33301 -26.166 -16 -47.499l-168 -569c-4 -15.333 -8 -23 -12 -23s-8.66699 7.66699 -14 23l-168 569
c-6 20 -11.167 35.333 -15.5 46s-8.66602 18.834 -12.999 24.501s-9.5 9.33398 -15.5 11.001s-14 2.5 -24 2.5c-17.333 0 -29.5 -6 -36.5 -18s-12.167 -30 -15.5 -54l-87 -640h42z" />
    <glyph glyph-name="N" unicode="N" horiz-adv-x="611" 
d="M110 0l0.00195312 655.999c0 12 4 18 12 18c4 0 7.83301 -2.66699 11.5 -8s9.16699 -15.666 16.5 -30.999l278 -599c6 -13.333 14 -24.666 24 -33.999s23.333 -14 40 -14c34 0 51 16.667 51 50v674h-42v-663c0 -12.667 -3.66699 -19 -11 -19
c-6.66699 0 -12.334 4.66699 -17.001 14l-293 626c-8 17.333 -16.333 28.666 -25 33.999s-20.334 8 -35.001 8c-18 0 -31.167 -5.5 -39.5 -16.5s-12.5 -24.167 -12.5 -39.5v-656h42z" />
    <glyph glyph-name="O" unicode="O" horiz-adv-x="778" 
d="M388 -12c48.667 0 94.834 9.33301 138.501 28s81.834 44.834 114.501 78.501s58.167 72.5 76.5 116.5s27.5 90.333 27.5 139s-9.16699 95 -27.5 139s-43.833 82.833 -76.5 116.5s-70.834 59.834 -114.501 78.501s-89.834 28 -138.501 28s-94.667 -9.33301 -138 -28
s-81.333 -44.834 -114 -78.501s-58 -72.5 -76 -116.5s-27 -90.333 -27 -139s9 -95 27 -139s43.333 -82.833 76 -116.5s70.667 -59.834 114 -78.501s89.333 -28 138 -28zM388 26c-43.333 0 -84 8.5 -122 25.5s-71.167 40.5 -99.5 70.5s-50.333 64.667 -66 104
s-23.5 80.666 -23.5 123.999s7.83301 84.666 23.5 123.999s37.667 74 66 104s61.5 53.5 99.5 70.5s78.667 25.5 122 25.5s84.166 -8.5 122.499 -25.5s71.833 -40.5 100.5 -70.5s50.834 -64.667 66.501 -104s23.5 -80.666 23.5 -123.999s-7.83301 -84.666 -23.5 -123.999
s-37.834 -74 -66.501 -104s-62.167 -53.5 -100.5 -70.5s-79.166 -25.5 -122.499 -25.5z" />
    <glyph glyph-name="P" unicode="P" horiz-adv-x="500" 
d="M102 0v510.003c0 22 4.16699 43 12.5 63s20.333 37.667 36 53s34.167 27.166 55.5 35.499s44.333 12.5 69 12.5c50.667 0 91.834 -15.833 123.501 -47.5s47.5 -74.834 47.5 -129.501s-15.833 -97.834 -47.5 -129.501s-72.834 -47.5 -123.501 -47.5h-136v-38h136
c62.667 0 114.167 19.167 154.5 57.5s60.5 90.833 60.5 157.5s-20.167 119.167 -60.5 157.5s-91.833 57.5 -154.5 57.5c-66.667 0 -119.167 -19.833 -157.5 -59.5s-57.5 -88.5 -57.5 -146.5v-506h42z" />
    <glyph glyph-name="Q" unicode="Q" horiz-adv-x="778" 
d="M424 192l-37.9971 -0.000976562v-344h38v142c44.667 4.66699 86.667 17.167 126 37.5s73.666 47 102.999 80s52 70.167 68 111.5s24 85 24 131c0 48.667 -9.16699 95 -27.5 139s-43.833 82.833 -76.5 116.5s-70.834 59.834 -114.501 78.501s-89.834 28 -138.501 28
s-94.667 -9.33301 -138 -28s-81.333 -44.834 -114 -78.501s-58 -72.5 -76 -116.5s-27 -90.333 -27 -139c0 -45.333 8.16699 -89 24.5 -131s39 -79.5 68 -112.5s62 -59.5 99 -79.5s75.5 -31.667 115.5 -35v38c-36.667 5.33301 -71 17.333 -103 36s-60 42.334 -84 71.001
s-42.667 61.334 -56 98.001s-20 75 -20 115c0 43.333 7.83301 84.666 23.5 123.999s37.667 74 66 104s61.5 53.5 99.5 70.5s78.667 25.5 122 25.5s84.166 -8.5 122.499 -25.5s71.833 -40.5 100.5 -70.5s50.834 -64.667 66.501 -104s23.5 -80.666 23.5 -123.999
c0 -40 -6.83301 -78.5 -20.5 -115.5s-33.167 -70.167 -58.5 -99.5s-54.833 -53.333 -88.5 -72s-70.167 -30.334 -109.5 -35.001v164z" />
    <glyph glyph-name="R" unicode="R" 
d="M106 0l-0.000976562 493.999c0 54.667 14.5 98.334 43.5 131.001s69.833 49 122.5 49c50 0 90.833 -13.667 122.5 -41s47.5 -63 47.5 -107c0 -48.667 -15.5 -87.167 -46.5 -115.5s-76.167 -42.5 -135.5 -42.5h-114v-36h144c56.667 0 98.5 -12.333 125.5 -37
s40.5 -57 40.5 -97v-198h44v192c0 44.667 -11.667 81 -35 109s-54.666 45.333 -93.999 52v2c39.333 13.333 68.333 35 87 65s28 66.667 28 110c0 53.333 -19.833 97 -59.5 131s-91.167 51 -154.5 51c-62.667 0 -113 -20 -151 -60s-57 -93.333 -57 -160v-492h42z" />
    <glyph glyph-name="S" unicode="S" 
d="M473 700l-248 0.000976562c-53.333 0 -97 -13.333 -131 -40s-51 -65.667 -51 -117c0 -33.333 6.16699 -61.333 18.5 -84s28.833 -41.167 49.5 -55.5s42.667 -25.666 66 -33.999s53 -17.5 89 -27.5c34 -9.33301 61.667 -17.833 83 -25.5s41.166 -17.5 59.499 -29.5
s33 -27.5 44 -46.5s16.5 -42.167 16.5 -69.5c0 -42.667 -15.667 -75.5 -47 -98.5s-75.666 -34.5 -132.999 -34.5h-246v-38h252c69.333 0 123 15 161 45s57 74 57 132c0 33.333 -6.33301 61.5 -19 84.5s-29.667 41.667 -51 56s-43.666 25.833 -66.999 34.5
s-54.333 18.667 -93 30c-32.667 8.66699 -59.334 16.667 -80.001 24s-40 16.666 -58 27.999s-32.167 25.666 -42.5 42.999s-15.5 38 -15.5 62c0 40 11.833 70.5 35.5 91.5s63.167 31.5 118.5 31.5h232v38z" />
    <glyph glyph-name="T" unicode="T" horiz-adv-x="444" 
d="M243 664h199v36h-440v-36h199v-664h42v664z" />
    <glyph glyph-name="U" unicode="U" horiz-adv-x="611" 
d="M64 700v-471c0 -75.333 21.667 -134.333 65 -177s102 -64 176 -64s132.667 21.333 176 64s65 101.667 65 177v471h-42v-484c0 -58.667 -18.167 -105 -54.5 -139s-84.5 -51 -144.5 -51s-108.167 17 -144.5 51s-54.5 80.333 -54.5 139v484h-42z" />
    <glyph glyph-name="V" unicode="V" horiz-adv-x="500" 
d="M-18 700l204.001 -663c6 -19.333 13.5 -32.333 22.5 -39s20.5 -10 34.5 -10s25.333 3.33301 34 10s16 19.667 22 39l219 663h-41l-209 -633c-4.66699 -15.333 -8.83398 -26 -12.501 -32s-7.83398 -9 -12.501 -9s-8.66699 3 -12 9s-7.66602 16.667 -12.999 32l-195 633
h-41z" />
    <glyph glyph-name="W" unicode="W" horiz-adv-x="944" 
d="M451 700l0.00195312 -468c0 -34.667 -5 -65.167 -15 -91.5s-23.667 -48 -41 -65s-36.333 -29.5 -57 -37.5s-42 -12 -64 -12c-48 0 -88 15.833 -120 47.5s-48 72.834 -48 123.501v503h-42v-508c0 -62 19.667 -111.5 59 -148.5s88.666 -55.5 147.999 -55.5
c47.333 0 86.5 10.333 117.5 31s58.833 53 83.5 97c24.667 -44 52.5 -76.333 83.5 -97s70.167 -31 117.5 -31c59.333 0 108.666 18.5 147.999 55.5s59 86.5 59 148.5v508h-42v-503c0 -50.667 -16 -91.834 -48 -123.501s-72 -47.5 -120 -47.5c-22 0 -43.333 4 -64 12
s-39.667 20.5 -57 37.5s-31 38.667 -41 65s-15 56.833 -15 91.5v468h-42z" />
    <glyph glyph-name="X" unicode="X" horiz-adv-x="611" 
d="M594 704c-33.333 0 -65.5 -5.83301 -96.5 -17.5s-59.167 -28.334 -84.5 -50.001s-47.166 -47.334 -65.499 -77.001s-32.166 -61.834 -41.499 -96.501h-2c-9.33301 34.667 -23.166 66.834 -41.499 96.501s-40.166 55.334 -65.499 77.001s-53.333 38.334 -84 50.001
s-63 17.5 -97 17.5v-42c32.667 0 65 -7.83301 97 -23.5s60.833 -37.667 86.5 -66s46.167 -61.5 61.5 -99.5s23 -78.333 23 -121s-7.5 -83 -22.5 -121s-35.5 -71.167 -61.5 -99.5s-55 -50.333 -87 -66s-64.333 -23.5 -97 -23.5v-42c34 -0 66.333 5.83301 97 17.5
s58.667 28.334 84 50.001s47.166 47.334 65.499 77.001s32.166 61.834 41.499 96.501h2c9.33301 -34.667 23.166 -66.834 41.499 -96.501s40.166 -55.334 65.499 -77.001s53.5 -38.334 84.5 -50.001s63.167 -17.5 96.5 -17.5v42c-32.667 0 -65 7.83301 -97 23.5
s-60.833 37.667 -86.5 66s-46.167 61.5 -61.5 99.5s-23 78.333 -23 121s7.66699 83 23 121s35.833 71.167 61.5 99.5s54.5 50.333 86.5 66s64.333 23.5 97 23.5v42z" />
    <glyph glyph-name="Y" unicode="Y" 
d="M450 700l0.00195312 -194c0 -52.667 -16 -95.167 -48 -127.5s-73.333 -48.5 -124 -48.5s-92 16.167 -124 48.5s-48 74.833 -48 127.5v194h-42v-191c0 -32.667 5.16699 -62.5 15.5 -89.5s24.666 -50 42.999 -69s39 -33.5 62 -43.5s47.167 -15 72.5 -15v-292h42v292
c25.333 0 49.5 5 72.5 15s43.667 24.5 62 43.5s32.666 42 42.999 69s15.5 56.833 15.5 89.5v191h-42z" />
    <glyph glyph-name="Z" unicode="Z" horiz-adv-x="500" 
d="M470 38l-388.001 0.000976562c-12 0 -18 4.33301 -18 13c0 4 0.5 7.33301 1.5 10s3.5 6.66699 7.5 12l356 505c12.667 18 21.334 32 26.001 42s7 22 7 36c0 29.333 -20.333 44 -61 44h-343v-38h344c10.667 0 16 -4 16 -12c0 -5.33301 -1.33301 -10.833 -4 -16.5
s-8 -13.834 -16 -24.501l-350 -495c-10.667 -15.333 -18 -28 -22 -38s-6 -20.667 -6 -32c0 -14.667 4.66699 -25.667 14 -33s24.333 -11 45 -11h391v38z" />
    <glyph glyph-name="bracketleft" unicode="[" horiz-adv-x="278" 
d="M90 700v-886h136v38h-98v810h98v38h-136z" />
    <glyph glyph-name="backslash" unicode="\" horiz-adv-x="278" 
d="M-66 712l371 -724h40l-371 724h-40z" />
    <glyph glyph-name="bracketright" unicode="]" horiz-adv-x="278" 
d="M52 700v-38h98v-810h-98v-38h136v886h-136z" />
    <glyph glyph-name="asciicircum" unicode="^" horiz-adv-x="600" 
d="M277 700l-216 -424h47l192 380l190 -380h49l-216 424h-46z" />
    <glyph glyph-name="underscore" unicode="_" horiz-adv-x="500" 
d="M500 -125v50h-500v-50h500z" />
    <glyph glyph-name="grave" unicode="`" horiz-adv-x="222" 
d="M168 534l-119 138h-51l133 -138h37z" />
    <glyph glyph-name="a" unicode="a" 
d="M496 0l0.000976562 237c0 35.333 -5.83301 68 -17.5 98s-28.167 56.167 -49.5 78.5s-46 39.666 -74 51.999s-58 18.5 -90 18.5s-62 -6.16699 -90 -18.5s-52.667 -29.5 -74 -51.5s-37.833 -48.167 -49.5 -78.5s-17.5 -63.166 -17.5 -98.499
c0 -34.667 5.83301 -67.167 17.5 -97.5s28.167 -56.666 49.5 -78.999s46 -39.666 74 -51.999s58 -18.5 90 -18.5s59.333 5.66699 82 17s44.667 25.666 66 42.999v45c-21.333 -22.667 -43.833 -39.834 -67.5 -51.501s-50.5 -17.5 -80.5 -17.5c-24 0 -47.5 5.33301 -70.5 16
s-43.5 25.5 -61.5 44.5s-32.333 41.5 -43 67.5s-16 53.667 -16 83s5.33301 57 16 83s25 48.667 43 68s38.5 34.166 61.5 44.499s46.5 15.5 70.5 15.5c28 0 53.833 -5.66699 77.5 -17s44.167 -27 61.5 -47s30.666 -42.667 39.999 -68s14 -51.666 14 -78.999v-237h38z" />
    <glyph glyph-name="b" unicode="b" 
d="M60 700l-0.000976562 -463.004c0 -34.667 5.83301 -67.167 17.5 -97.5s28.167 -56.666 49.5 -78.999s46 -39.666 74 -51.999s58 -18.5 90 -18.5s62.167 6.16699 90.5 18.5s53 29.5 74 51.5s37.333 48.333 49 79s17.5 63.334 17.5 98.001c0 35.333 -5.83301 68 -17.5 98
s-28.167 56.167 -49.5 78.5s-46 39.666 -74 51.999s-58 18.5 -90 18.5s-59.333 -5.66699 -82 -17s-44.667 -25.666 -66 -42.999v-45c22 22.667 44.667 39.834 68 51.501s50 17.5 80 17.5c24 0 47.5 -5.16699 70.5 -15.5s43.5 -25.166 61.5 -44.499s32.333 -42 43 -68
s16 -53.667 16 -83s-5.33301 -57 -16 -83s-25 -48.5 -43 -67.5s-38.5 -33.833 -61.5 -44.5s-46.5 -16 -70.5 -16c-28 0 -53.833 5.66699 -77.5 17s-44.167 27 -61.5 47s-30.666 42.667 -39.999 68s-14 51.666 -14 78.999v463h-38z" />
    <glyph glyph-name="c" unicode="c" horiz-adv-x="389" 
d="M351 484l-71 0.00195312c-34 0 -65.833 -5.83301 -95.5 -17.5s-55.5 -28.167 -77.5 -49.5s-39 -47 -51 -77s-18 -62.667 -18 -98s6 -67.833 18 -97.5s29 -55.334 51 -77.001s47.833 -38.334 77.5 -50.001s61.5 -17.5 95.5 -17.5h71v40h-69
c-60.667 0 -109.834 18.667 -147.501 56s-56.5 86 -56.5 146s18.833 108.667 56.5 146s86.834 56 147.501 56h69v40z" />
    <glyph glyph-name="d" unicode="d" 
d="M458 700l-0.000976562 -463.002c0 -27.333 -4.66699 -53.666 -14 -78.999s-22.666 -48 -39.999 -68s-37.833 -35.667 -61.5 -47s-49.5 -17 -77.5 -17c-24 0 -47.5 5.33301 -70.5 16s-43.5 25.5 -61.5 44.5s-32.333 41.5 -43 67.5s-16 53.667 -16 83s5.33301 57 16 83
s25 48.667 43 68s38.5 34.166 61.5 44.499s46.5 15.5 70.5 15.5c30 0 56.833 -5.83301 80.5 -17.5s46.167 -28.834 67.5 -51.501v45c-21.333 17.333 -43.333 31.666 -66 42.999s-50 17 -82 17s-62 -6.16699 -90 -18.5s-52.667 -29.5 -74 -51.5s-37.833 -48.167 -49.5 -78.5
s-17.5 -63.166 -17.5 -98.499c0 -34.667 5.83301 -67.167 17.5 -97.5s28.167 -56.666 49.5 -78.999s46 -39.666 74 -51.999s58 -18.5 90 -18.5s62.167 6.16699 90.5 18.5s53 29.5 74 51.5s37.333 48.333 49 79s17.5 63.334 17.5 98.001v463h-38z" />
    <glyph glyph-name="e" unicode="e" 
d="M156 138l339.002 230.003c-22 35.333 -51.5 63.5 -88.5 84.5s-77.833 31.5 -122.5 31.5c-35.333 0 -68.333 -6.5 -99 -19.5s-56.834 -31 -78.501 -54s-38.5 -49.5 -50.5 -79.5s-18 -61.667 -18 -95c0 -34.667 6.16699 -67 18.5 -97s30 -56.167 53 -78.5
s50.167 -39.666 81.5 -51.999s65 -18.5 101 -18.5c32.667 0 63.5 6.33301 92.5 19s54.5 30 76.5 52s39.167 47.333 51.5 76s18.833 58.667 19.5 90h-40c-0.666992 -26.667 -6.33398 -52.167 -17.001 -76.5s-25.5 -45.833 -44.5 -64.5s-41.167 -33.334 -66.5 -44.001
s-52 -16 -80 -16c-28.667 0 -55.667 5.5 -81 16.5s-47.333 26.167 -66 45.5s-33.167 41.666 -43.5 66.999s-15.5 51.666 -15.5 78.999c0 28 5 55 15 81s24.333 49 43 69s40.667 35.667 66 47s52.666 17 81.999 17c30.667 0 59.334 -6.33301 86.001 -19
s49 -30.334 67 -53.001l-305 -206z" />
    <glyph glyph-name="f" unicode="f" horiz-adv-x="278" 
d="M294 474h-195.999v69c0 39.333 12.167 69.333 36.5 90s52.166 31 83.499 31h76v36h-76c-18.667 0 -37.334 -3 -56.001 -9s-35.667 -15.167 -51 -27.5s-27.666 -27.833 -36.999 -46.5s-14 -40 -14 -64v-553h38v438h196v36z" />
    <glyph glyph-name="g" unicode="g" 
d="M121 -204c44 -16 89.668 -23.998 137.001 -23.998c70 0 127.167 20.667 171.5 62s66.5 98.666 66.5 171.999v231c0 35.333 -5.83301 68 -17.5 98s-28.167 56.167 -49.5 78.5s-46 39.666 -74 51.999s-58 18.5 -90 18.5s-62 -6.16699 -90 -18.5s-52.667 -29.5 -74 -51.5
s-37.833 -48.167 -49.5 -78.5s-17.5 -63.166 -17.5 -98.499c0 -34.667 5.83301 -67.167 17.5 -97.5s28.167 -56.666 49.5 -78.999s46 -39.666 74 -51.999s58 -18.5 90 -18.5s59.333 5.66699 82 17s44.667 25.666 66 42.999v45
c-21.333 -22.667 -43.833 -39.834 -67.5 -51.501s-50.5 -17.5 -80.5 -17.5c-24 0 -47.5 5.33301 -70.5 16s-43.5 25.5 -61.5 44.5s-32.333 41.5 -43 67.5s-16 53.667 -16 83s5.33301 57 16 83s25 48.667 43 68s38.5 34.166 61.5 44.499s46.5 15.5 70.5 15.5
c28 0 53.833 -5.66699 77.5 -17s44.167 -27 61.5 -47s30.666 -42.667 39.999 -68s14 -51.666 14 -78.999v-205c0 -80 -17.333 -137.333 -52 -172s-85.667 -52 -153 -52c-18.667 0 -38.667 2.16699 -60 6.5s-41.333 10.166 -60 17.499z" />
    <glyph glyph-name="h" unicode="h" horiz-adv-x="500" 
d="M440 0l-0.000976562 289.001c0 28.667 -4.83301 55 -14.5 79s-23.167 44.667 -40.5 62s-37.666 30.666 -60.999 39.999s-48 14 -74 14c-30.667 0 -59.167 -6.5 -85.5 -19.5s-47.833 -31.167 -64.5 -54.5h-2v290h-38v-700h38v284c0 48.667 14.667 88.167 44 118.5
s65.333 45.5 108 45.5s78.667 -15.167 108 -45.5s44 -69.833 44 -118.5v-284h38z" />
    <glyph glyph-name="i" unicode="i" horiz-adv-x="222" 
d="M130 0v474h-38v-474h38zM81 608c0 -8.66699 2.83301 -15.834 8.5 -21.501s12.834 -8.5 21.501 -8.5s15.834 2.83301 21.501 8.5s8.5 12.834 8.5 21.501s-2.83301 15.834 -8.5 21.501s-12.834 8.5 -21.501 8.5s-15.834 -2.83301 -21.501 -8.5s-8.5 -12.834 -8.5 -21.501z
" />
    <glyph glyph-name="j" unicode="j" horiz-adv-x="222" 
d="M92 474l-0.000976562 -545c0 -39.333 -12.167 -69.333 -36.5 -90s-52.166 -31 -83.499 -31h-22v-36h22c18.667 0 37.334 3 56.001 9s35.667 15.167 51 27.5s27.666 27.833 36.999 46.5s14 40 14 64v555h-38zM80.999 608c0 -8.66699 2.83301 -15.834 8.5 -21.501
s12.834 -8.5 21.501 -8.5s15.834 2.83301 21.501 8.5s8.5 12.834 8.5 21.501s-2.83301 15.834 -8.5 21.501s-12.834 8.5 -21.501 8.5s-15.834 -2.83301 -21.501 -8.5s-8.5 -12.834 -8.5 -21.501z" />
    <glyph glyph-name="k" unicode="k" horiz-adv-x="444" 
d="M98 0l-0.00195312 239.999h134c36 0 65 -11.333 87 -34s33 -50 33 -82v-124h38v126c0 46.667 -12.833 82.334 -38.5 107.001s-56.5 37.667 -92.5 39v2c12.667 8 23.834 18 33.501 30s20.834 28.333 33.501 49l11 17l69 104h-46l-56 -83
c-28.667 -42.667 -51.5 -72.5 -68.5 -89.5s-36.833 -25.5 -59.5 -25.5h-78v424h-38v-700h38z" />
    <glyph glyph-name="l" unicode="l" horiz-adv-x="222" 
d="M130 0v700h-38v-700h38z" />
    <glyph glyph-name="m" unicode="m" horiz-adv-x="722" 
d="M380 0l0.00390625 314c0 42.667 12.167 75.667 36.5 99s53.166 35 86.499 35s62.166 -11.667 86.499 -35s36.5 -56.333 36.5 -99v-314h38v314c0 53.333 -15.167 95 -45.5 125s-68.833 45 -115.5 45c-72.667 0 -119.667 -31 -141 -93h-2c-20.667 62 -67.667 93 -141 93
c-46.667 0 -85.167 -15 -115.5 -45s-45.5 -71.667 -45.5 -125v-314h38v314c0 42.667 12.167 75.667 36.5 99s53.166 35 86.499 35s62.166 -11.667 86.499 -35s36.5 -56.333 36.5 -99v-314h38z" />
    <glyph glyph-name="n" unicode="n" horiz-adv-x="500" 
d="M440 0l-0.00195312 289c0 28.667 -4.83301 55 -14.5 79s-23.167 44.667 -40.5 62s-37.666 30.666 -60.999 39.999s-48 14 -74 14s-50.667 -4.66699 -74 -14s-43.666 -22.666 -60.999 -39.999s-30.833 -38 -40.5 -62s-14.5 -50.333 -14.5 -79v-289h38v284
c0 48.667 14.667 88.167 44 118.5s65.333 45.5 108 45.5s78.667 -15.167 108 -45.5s44 -69.833 44 -118.5v-284h38z" />
    <glyph glyph-name="o" unicode="o" 
d="M278 448c28 0 54.333 -5.66699 79 -17s46.167 -27 64.5 -47s32.333 -42.667 42 -68s14.5 -51.666 14.5 -78.999s-5 -53.666 -15 -78.999s-24 -48 -42 -68s-39.333 -35.667 -64 -47s-51 -17 -79 -17s-54.333 5.66699 -79 17s-46 27 -64 47s-32 42.667 -42 68
s-15 51.666 -15 78.999s5 53.666 15 78.999s24 48 42 68s39.333 35.667 64 47s51 17 79 17zM278 484c-33.333 0 -64.666 -6.5 -93.999 -19.5s-55 -30.833 -77 -53.5s-39 -49 -51 -79s-18 -61.667 -18 -95s6 -65 18 -95s29 -56.333 51 -79s47.667 -40.5 77 -53.5
s60.666 -19.5 93.999 -19.5s64.666 6.5 93.999 19.5s55 30.833 77 53.5s39 49 51 79s18 61.667 18 95s-6 65 -18 95s-29 56.333 -51 79s-47.667 40.5 -77 53.5s-60.666 19.5 -93.999 19.5z" />
    <glyph glyph-name="p" unicode="p" 
d="M98 -228l0.000976562 464.997c0 27.333 4.66699 53.666 14 78.999s22.666 48 39.999 68s37.833 35.667 61.5 47s49.5 17 77.5 17c24 0 47.5 -5.16699 70.5 -15.5s43.5 -25.166 61.5 -44.499s32.333 -42 43 -68s16 -53.667 16 -83s-5.33301 -57 -16 -83
s-25 -48.5 -43 -67.5s-38.5 -33.833 -61.5 -44.5s-46.5 -16 -70.5 -16c-30 0 -56.667 5.83301 -80 17.5s-46 28.834 -68 51.501v-45c21.333 -17.333 43.333 -31.666 66 -42.999s50 -17 82 -17s62.167 6.16699 90.5 18.5s53 29.5 74 51.5s37.333 48.333 49 79
s17.5 63.334 17.5 98.001c0 35.333 -5.83301 68 -17.5 98s-28.167 56.167 -49.5 78.5s-46 39.666 -74 51.999s-58 18.5 -90 18.5s-62 -6.16699 -90 -18.5s-52.667 -29.5 -74 -51.5s-37.833 -48.167 -49.5 -78.5s-17.5 -63.166 -17.5 -98.499v-465h38z" />
    <glyph glyph-name="q" unicode="q" 
d="M496 -226l0.000976562 463c0 35.333 -5.83301 68 -17.5 98s-28.167 56.167 -49.5 78.5s-46 39.666 -74 51.999s-58 18.5 -90 18.5s-62 -6.16699 -90 -18.5s-52.667 -29.5 -74 -51.5s-37.833 -48.167 -49.5 -78.5s-17.5 -63.166 -17.5 -98.499
c0 -34.667 5.83301 -67.167 17.5 -97.5s28.167 -56.666 49.5 -78.999s46 -39.666 74 -51.999s58 -18.5 90 -18.5s59.333 5.66699 82 17s44.667 25.666 66 42.999v45c-21.333 -22.667 -43.833 -39.834 -67.5 -51.501s-50.5 -17.5 -80.5 -17.5c-24 0 -47.5 5.33301 -70.5 16
s-43.5 25.5 -61.5 44.5s-32.333 41.5 -43 67.5s-16 53.667 -16 83s5.33301 57 16 83s25 48.667 43 68s38.5 34.166 61.5 44.499s46.5 15.5 70.5 15.5c28 0 53.833 -5.66699 77.5 -17s44.167 -27 61.5 -47s30.666 -42.667 39.999 -68s14 -51.666 14 -78.999v-463h38z" />
    <glyph glyph-name="r" unicode="r" horiz-adv-x="278" 
d="M98 0v248.001c0 27.333 4 52.666 12 75.999s19 43.5 33 60.5s29.667 30.167 47 39.5s35.333 14 54 14h40v36h-44c-30 0 -58 -8.83301 -84 -26.5s-44.667 -39.167 -56 -64.5h-2v91h-38v-474h38z" />
    <glyph glyph-name="s" unicode="s" horiz-adv-x="444" 
d="M38 0h203.004c53.333 0 94.333 10.167 123 30.5s43 50.833 43 91.5c0 24 -5 44.167 -15 60.5s-23.333 29.333 -40 39s-34.334 17.167 -53.001 22.5s-43.334 11.666 -74.001 18.999c-25.333 5.33301 -45.5 10.166 -60.5 14.499s-29.167 10 -42.5 17
s-23.833 15.833 -31.5 26.5s-11.5 23.667 -11.5 39c0 24.667 8.16699 43.834 24.5 57.501s35.5 20.5 57.5 20.5h210v36h-213c-37.333 0 -66.833 -11 -88.5 -33s-32.5 -49.333 -32.5 -82c0 -21.333 4.66699 -39.5 14 -54.5s21.833 -27 37.5 -36s32.167 -16.167 49.5 -21.5
s40.666 -11.333 69.999 -18c24 -5.33301 44.833 -10.666 62.5 -15.999s33.667 -12 48 -20s25.666 -18.167 33.999 -30.5s12.5 -27.833 12.5 -46.5c0 -25.333 -9.16699 -45 -27.5 -59s-47.5 -21 -87.5 -21h-212v-36z" />
    <glyph glyph-name="t" unicode="t" horiz-adv-x="278" 
d="M98 604h-38.001v-468c0 -42.667 11.833 -76 35.5 -100s57.834 -36 102.501 -36h68v36h-76c-28 0 -50.333 8.5 -67 25.5s-25 40.5 -25 70.5v306h168v36h-168v130z" />
    <glyph glyph-name="u" unicode="u" horiz-adv-x="500" 
d="M60 474l0.00195312 -289c0 -28.667 4.83301 -55 14.5 -79s23.167 -44.667 40.5 -62s37.666 -30.666 60.999 -39.999s48 -14 74 -14s50.667 4.66699 74 14s43.666 22.666 60.999 39.999s30.833 38 40.5 62s14.5 50.333 14.5 79v289h-38v-284
c0 -48.667 -14.667 -88.167 -44 -118.5s-65.333 -45.5 -108 -45.5s-78.667 15.167 -108 45.5s-44 69.833 -44 118.5v284h-38z" />
    <glyph glyph-name="v" unicode="v" horiz-adv-x="444" 
d="M404 474l-167.999 -424c-4.66699 -13.333 -9.33398 -20 -14.001 -20c-3.33301 0 -8 6.66699 -14 20l-168 424h-44l181 -459c6.66699 -16.667 21.667 -25 45 -25s38.333 8.33301 45 25l181 459h-44z" />
    <glyph glyph-name="w" unicode="w" horiz-adv-x="722" 
d="M342 474l-0.00390625 -314c0 -42.667 -12.167 -75.667 -36.5 -99s-53.166 -35 -86.499 -35s-62.166 11.667 -86.499 35s-36.5 56.333 -36.5 99v314h-38v-314c0 -53.333 15.167 -95 45.5 -125s68.833 -45 115.5 -45c73.333 0 120.333 31 141 93h2
c21.333 -62 68.333 -93 141 -93c46.667 0 85.167 15 115.5 45s45.5 71.667 45.5 125v314h-38v-314c0 -42.667 -12.167 -75.667 -36.5 -99s-53.166 -35 -86.499 -35s-62.166 11.667 -86.499 35s-36.5 56.333 -36.5 99v314h-38z" />
    <glyph glyph-name="x" unicode="x" horiz-adv-x="444" 
d="M426 474c-45.333 0 -86.333 -12.5 -123 -37.5s-63.667 -59.167 -81 -102.5c-16.667 43.333 -43.5 77.5 -80.5 102.5s-78.167 37.5 -123.5 37.5v-36c23.333 0 46 -5.16699 68 -15.5s41.833 -24.666 59.5 -42.999s31.5 -39.833 41.5 -64.5s15 -50.667 15 -78
s-5 -53.166 -15 -77.499s-23.833 -45.833 -41.5 -64.5s-37.5 -33.167 -59.5 -43.5s-44.667 -15.5 -68 -15.5v-36c45.333 0 86.5 12.667 123.5 38s63.833 59.333 80.5 102c17.333 -42.667 44.333 -76.667 81 -102s77.667 -38 123 -38v36c-23.333 0 -46 5.16699 -68 15.5
s-41.833 24.833 -59.5 43.5s-31.5 40.167 -41.5 64.5s-15 50.166 -15 77.499s5 53.166 15 77.499s23.833 45.833 41.5 64.5s37.5 33.167 59.5 43.5s44.667 15.5 68 15.5v36z" />
    <glyph glyph-name="y" unicode="y" horiz-adv-x="500" 
d="M271 -216v208c48.667 4 89 23.667 121 59s48 80 48 134v289h-38v-284c0 -48.667 -14.667 -88.167 -44 -118.5s-65.333 -45.5 -108 -45.5s-78.667 15.167 -108 45.5s-44 69.833 -44 118.5v284h-38v-289c0 -54 16 -98.667 48 -134s72.333 -55 121 -59v-208h42z" />
    <glyph glyph-name="z" unicode="z" horiz-adv-x="389" 
d="M42 436h252c12 0 18 -3.33301 18 -10c0 -4.66699 -3.33301 -11 -10 -19c-1.33301 -1.33301 -2.66602 -3 -3.99902 -5l-253 -306c-9.33301 -11.333 -15.5 -21 -18.5 -29s-4.5 -16 -4.5 -24c0 -28.667 14 -43 42 -43h304v38h-284c-12 0 -18 3.33301 -18 10
c0 4.66699 3.33301 11 10 19c1.33301 1.33301 2.66602 3 3.99902 5l253 306c9.33301 12 15.5 21.833 18.5 29.5s4.5 15.5 4.5 23.5c0 28.667 -14 43 -42 43h-272v-38z" />
    <glyph glyph-name="braceleft" unicode="{" horiz-adv-x="278" 
d="M66 243c20 0 33.999 -14.332 41.999 -42.999s12 -65.334 12 -110.001v-156c0 -46 5.5 -77.5 16.5 -94.5s27.833 -25.5 50.5 -25.5h39v38h-38c-10.667 0 -18.334 6.66699 -23.001 20s-7 39.666 -7 78.999v155c0 24 -2.16699 45.5 -6.5 64.5s-9.5 34.833 -15.5 47.5
s-11.667 22.334 -17 29.001s-9.66602 11.334 -12.999 14.001v2c4 3.33301 8.5 8.33301 13.5 15s10.5 16.167 16.5 28.5s11.167 28 15.5 47s6.5 40.5 6.5 64.5v157c0 39.333 2.33301 65.666 7 78.999s12.334 20 23.001 20h38v38h-39c-22.667 0 -39.5 -8.5 -50.5 -25.5
s-16.5 -48.5 -16.5 -94.5v-157c0 -44.667 -4 -81.5 -12 -110.5s-22 -43.5 -42 -43.5v-38z" />
    <glyph glyph-name="bar" unicode="|" horiz-adv-x="222" 
d="M91 0h40v700h-40v-700z" />
    <glyph glyph-name="braceright" unicode="}" horiz-adv-x="278" 
d="M212 281c-20 0 -33.999 14.3311 -41.999 42.998s-12 65.334 -12 110.001v156c0 46 -5.5 77.5 -16.5 94.5s-27.833 25.5 -50.5 25.5h-39v-38h38c10.667 0 18.334 -6.66699 23.001 -20s7 -39.666 7 -78.999v-155c0 -24 2.16699 -45.5 6.5 -64.5s9.5 -34.833 15.5 -47.5
s11.667 -22.334 17 -29.001s9.66602 -11.334 12.999 -14.001v-2c-4 -3.33301 -8.5 -8.16602 -13.5 -14.499s-10.5 -15.833 -16.5 -28.5s-11.167 -28.5 -15.5 -47.5s-6.5 -40.5 -6.5 -64.5v-157c0 -39.333 -2.33301 -65.666 -7 -78.999s-12.334 -20 -23.001 -20h-38v-38h39
c22.667 0 39.5 8.5 50.5 25.5s16.5 48.5 16.5 94.5v157c0 44.667 4 81.5 12 110.5s22 43.5 42 43.5v38z" />
    <glyph glyph-name="asciitilde" unicode="~" horiz-adv-x="600" 
d="M510 294c-14.667 -22.667 -28.999 -40.335 -42.999 -53.002s-30 -19 -48 -19c-16 0 -32.833 3 -50.5 9s-39.167 14.333 -64.5 25c-26 11.333 -47.167 19.833 -63.5 25.5s-31.833 8.5 -46.5 8.5c-28.667 0 -53.834 -8 -75.501 -24s-39.834 -36.667 -54.501 -62l26 -24
c14.667 22.667 29.167 40.334 43.5 53.001s31.166 19 50.499 19c16 0 32.667 -2.83301 50 -8.5s38.666 -14.167 63.999 -25.5l4 -1c24.667 -11.333 44.834 -19.666 60.501 -24.999s30.167 -8 43.5 -8c28.667 0 53.834 8 75.501 24s39.834 36.667 54.501 62z" />
    <glyph glyph-name="exclamdown" unicode="&#xa1;" horiz-adv-x="222" 
d="M97 346v-574h38v574h-38zM78 452c0 -10.667 3.66699 -19.667 11 -27s16.333 -11 27 -11s19.667 3.66699 27 11s11 16.333 11 27s-3.66699 19.667 -11 27s-16.333 11 -27 11s-19.667 -3.66699 -27 -11s-11 -16.333 -11 -27z" />
    <glyph glyph-name="cent" unicode="&#xa2;" 
d="M366 556h-81v144h-40v-144c-54 0 -98.333 -15.833 -133 -47.5s-52 -75.167 -52 -130.5s17.333 -98.833 52 -130.5s79 -47.5 133 -47.5v-158h40v158h81v38h-115c-46 0 -82 12.5 -108 37.5s-39 59.167 -39 102.5s13 77.5 39 102.5s62 37.5 108 37.5h115v38z" />
    <glyph glyph-name="sterling" unicode="&#xa3;" 
d="M-10 0l334.001 -0.00195312c60.667 0 107.834 18.5 141.501 55.5s50.5 83.833 50.5 140.5v73h-40v-65c0 -50.667 -14.167 -90.667 -42.5 -120s-68.166 -44 -119.499 -44h-200v2c12.667 10 22.5 19.5 29.5 28.5s12.5 19.333 16.5 31s6.66699 24.834 8 39.501s2 34 2 58
v152h123v40h-123v87c0 61.333 12.167 109.333 36.5 144s64.166 52 119.499 52c23.333 0 51.666 -4.66699 84.999 -14l14 34c-18.667 6 -36 10.5 -52 13.5s-33.667 4.5 -53 4.5c-34 0 -63.5 -6.16699 -88.5 -18.5s-44.833 -29.166 -59.5 -50.499s-25.334 -45.333 -32.001 -72
s-10 -55 -10 -85v-95h-66v-40h66v-183c0 -38.667 -11.5 -69.667 -34.5 -93s-53.5 -35 -91.5 -35h-14v-40z" />
    <glyph glyph-name="currency" unicode="&#xa4;" 
d="M70 350c0 28 5.33301 54.667 16 80s25.667 47.666 45 66.999s41.666 34.333 66.999 45s52 16 80 16s54.667 -5.33301 80 -16s47.666 -25.667 66.999 -45s34.333 -41.666 45 -66.999s16 -52 16 -80s-5.33301 -54.667 -16 -80s-25.667 -47.666 -45 -66.999
s-41.666 -34.333 -66.999 -45s-52 -16 -80 -16s-54.667 5.33301 -80 16s-47.666 25.667 -66.999 45s-34.333 41.666 -45 66.999s-16 52 -16 80zM467 191c18.667 21.333 33.167 45.666 43.5 72.999s15.5 56 15.5 86s-5.16699 58.667 -15.5 86s-24.833 51.666 -43.5 72.999
l55 55l-29 30l-55 -55c-21.333 18.667 -45.666 33.167 -72.999 43.5s-56.333 15.5 -87 15.5s-59.667 -5.16699 -87 -15.5s-51.666 -24.833 -72.999 -43.5l-55 55l-29 -30l55 -55c-18.667 -21.333 -33.167 -45.666 -43.5 -72.999s-15.5 -56 -15.5 -86
s5.16699 -58.667 15.5 -86s24.833 -51.666 43.5 -72.999l-55 -55l29 -30l55 55c21.333 -18.667 45.666 -33.167 72.999 -43.5s56.333 -15.5 87 -15.5s59.667 5.16699 87 15.5s51.666 24.833 72.999 43.5l55 -55l29 30z" />
    <glyph glyph-name="yen" unicode="&#xa5;" 
d="M43 286l214.998 -0.00195312v-286h40v286h215v40h-215c0 22 0.166992 37.167 0.5 45.5s1.5 15.166 3.5 20.499h211v40h-203c7.33301 32.667 19 63 35 91s34.833 52.333 56.5 73s44.834 36.5 69.501 47.5s49 16.5 73 16.5v40c-29.333 0 -58.333 -6.33301 -87 -19
s-55.167 -30.167 -79.5 -52.5s-45 -47.666 -62 -75.999s-29.167 -58.166 -36.5 -89.499h-2c-7.33301 31.333 -19.5 61.333 -36.5 90s-37.667 54 -62 76s-50.833 39.333 -79.5 52s-57.667 19 -87 19v-40c24 0 48.333 -5.5 73 -16.5s47.834 -26.833 69.501 -47.5
s40.5 -45 56.5 -73s27.667 -58.333 35 -91h-203v-40h211c2 -5.33301 3.16699 -12.166 3.5 -20.499s0.5 -23.5 0.5 -45.5h-215v-40z" />
    <glyph glyph-name="brokenbar" unicode="&#xa6;" horiz-adv-x="222" 
d="M91 268v-268h40v268h-40zM91 700v-268h40v268h-40z" />
    <glyph glyph-name="section" unicode="&#xa7;" horiz-adv-x="500" 
d="M91 -4c25.333 -24.667 50.1689 -43.334 74.502 -56.001s56.166 -19 95.499 -19c46 0 83 11.833 111 35.5s42 57.5 42 101.5c0 24.667 -8.33301 47.334 -25 68.001s-37 37 -61 49v2c30 1.33301 54.833 11.166 74.5 29.499s29.5 42.166 29.5 71.499
c0 21.333 -4.33301 40.333 -13 57s-20.5 31.334 -35.5 44.001s-30.833 23.667 -47.5 33s-38 20 -64 32c-25.333 12 -45.5 22.167 -60.5 30.5s-29.167 18 -42.5 29s-24 23.5 -32 37.5s-12 30 -12 48c0 26 10.167 48 30.5 66s47.833 27 82.5 27c30 0 57.5 -8.66699 82.5 -26
s44.167 -40 57.5 -68l29 27c-20 31.333 -44.333 55.333 -73 72s-61.334 25 -98.001 25c-42 0 -77 -12.167 -105 -36.5s-42 -55.5 -42 -93.5c0 -32.667 9.33301 -59.667 28 -81s42 -38.666 70 -51.999l-2 -2c-33.333 0 -61.166 -9.16699 -83.499 -27.5
s-33.5 -43.833 -33.5 -76.5c0 -20.667 4.33301 -39.167 13 -55.5s20.167 -30.333 34.5 -42s29.666 -21.5 45.999 -29.5s38.166 -18 65.499 -30l60.5 -28.5c15.667 -7.66699 30.334 -17 44.001 -28s24.5 -23.667 32.5 -38s12 -30.833 12 -49.5
c0 -25.333 -10.167 -46.833 -30.5 -64.5s-47.5 -26.5 -81.5 -26.5c-36 0 -64.333 6 -85 18s-41 30 -61 54zM312.003 201c-6 0 -20.5 3.83301 -43.5 11.5s-47 17.834 -72 30.501s-46.667 27.834 -65 45.501s-27.5 36.5 -27.5 56.5c0 23.333 7.83301 42.166 23.5 56.499
s35.167 21.5 58.5 21.5c6 0 20.5 -3.83301 43.5 -11.5s47 -17.834 72 -30.501s46.667 -27.834 65 -45.501s27.5 -36.5 27.5 -56.5c0 -23.333 -7.83301 -42.166 -23.5 -56.499s-35.167 -21.5 -58.5 -21.5z" />
    <glyph glyph-name="dieresis" unicode="&#xa8;" horiz-adv-x="222" 
d="M-2 592c0 -9.33301 3.33301 -17.333 10 -24s14.667 -10 24 -10s17.333 3.33301 24 10s10 14.667 10 24s-3.33301 17.333 -10 24s-14.667 10 -24 10s-17.333 -3.33301 -24 -10s-10 -14.667 -10 -24zM156 592c0 -9.33301 3.33301 -17.333 10 -24s14.667 -10 24 -10
s17.333 3.33301 24 10s10 14.667 10 24s-3.33301 17.333 -10 24s-14.667 10 -24 10s-17.333 -3.33301 -24 -10s-10 -14.667 -10 -24z" />
    <glyph glyph-name="copyright" unicode="&#xa9;" horiz-adv-x="800" 
d="M541 276c-6 -30.667 -20.4971 -56.168 -43.4971 -76.501s-51.5 -30.5 -85.5 -30.5c-24.667 0 -47.334 4.83301 -68.001 14.5s-38.334 23.167 -53.001 40.5s-25.834 37 -33.501 59s-11.5 44.667 -11.5 68c0 52 14.5 95 43.5 129s69.167 51 120.5 51
c34 0 62.833 -9.83301 86.5 -29.5s38.5 -44.167 44.5 -73.5h42c-8 38.667 -27.833 71.5 -59.5 98.5s-69.834 40.5 -114.501 40.5c-62 0 -112.333 -21 -151 -63c-18 -19.333 -31.833 -42.166 -41.5 -68.499s-14.5 -54.5 -14.5 -84.5c0 -66 18.833 -118.833 56.5 -158.5
s88.834 -59.5 153.501 -59.5c43.333 0 79.833 13.167 109.5 39.5s50.167 60.833 61.5 103.5h-42zM399.003 -12.001c48.667 0 94.834 9.33301 138.501 28s81.834 44.834 114.501 78.501s58.167 72.5 76.5 116.5s27.5 90.333 27.5 139s-9.16699 95 -27.5 139
s-43.833 82.833 -76.5 116.5s-70.834 59.834 -114.501 78.501s-89.834 28 -138.501 28s-94.667 -9.33301 -138 -28s-81.333 -44.834 -114 -78.501s-58 -72.5 -76 -116.5s-27 -90.333 -27 -139s9 -95 27 -139s43.333 -82.833 76 -116.5s70.667 -59.834 114 -78.501
s89.333 -28 138 -28zM399.003 25.999c-43.333 0 -84 8.5 -122 25.5s-71.167 40.5 -99.5 70.5s-50.333 64.667 -66 104s-23.5 80.666 -23.5 123.999s7.83301 84.666 23.5 123.999s37.667 74 66 104s61.5 53.5 99.5 70.5s78.667 25.5 122 25.5s84.166 -8.5 122.499 -25.5
s71.833 -40.5 100.5 -70.5s50.834 -64.667 66.501 -104s23.5 -80.666 23.5 -123.999s-7.83301 -84.666 -23.5 -123.999s-37.834 -74 -66.501 -104s-62.167 -53.5 -100.5 -70.5s-79.166 -25.5 -122.499 -25.5z" />
    <glyph glyph-name="ordfeminine" unicode="&#xaa;" horiz-adv-x="334" 
d="M307 422l-0.00195312 142c0 43.333 -13.833 78.833 -41.5 106.5s-63.834 41.5 -108.501 41.5c-42 0 -77.5 -14 -106.5 -42s-43.5 -63.333 -43.5 -106c0 -40 13.833 -74.667 41.5 -104s63.834 -44 108.501 -44c22.667 0 41.834 3.83301 57.501 11.5s28.5 18.167 38.5 31.5
v40c-8 -14.667 -21.167 -27.167 -39.5 -37.5s-37.166 -15.5 -56.499 -15.5c-35.333 0 -63.833 12 -85.5 36s-32.5 51.333 -32.5 82c0 31.333 10.833 58.833 32.5 82.5s50.167 35.5 85.5 35.5s63.833 -11.833 85.5 -35.5s32.5 -51.167 32.5 -82.5v-142h32z" />
    <glyph glyph-name="guillemotleft" unicode="&#xab;" horiz-adv-x="389" 
d="M214 82l-120 155l120 155h-47l-120 -155l120 -155h47zM337 82l-120 155l120 155h-47l-120 -155l120 -155h47z" />
    <glyph glyph-name="logicalnot" unicode="&#xac;" horiz-adv-x="600" 
d="M496 125h40v224h-472v-40h432v-184z" />
    <glyph glyph-name="minus" unicode="&#xad;" horiz-adv-x="600" 
d="M536 217v40h-472v-40h472z" />
    <glyph glyph-name="minus" unicode="&#x2212;" horiz-adv-x="600" 
d="M536 217v40h-472v-40h472z" />
    <glyph glyph-name="registered" unicode="&#xae;" horiz-adv-x="800" 
d="M302 334h102l121 -199h54l-128 199c34 5.33301 59.833 16.333 77.5 33s26.5 43 26.5 79c0 74 -44 111 -132 111h-159v-422h38v199zM302 370l-0.000976562 151.001h109c30.667 0 55.334 -5.5 74.001 -16.5s28 -30.167 28 -57.5c0 -18 -3.5 -32.333 -10.5 -43
s-16.333 -18.334 -28 -23.001s-24.5 -7.66699 -38.5 -9s-31.333 -2 -52 -2h-82zM398.999 -11.999c48.667 0 94.834 9.33301 138.501 28s81.834 44.834 114.501 78.501s58.167 72.5 76.5 116.5s27.5 90.333 27.5 139s-9.16699 95 -27.5 139s-43.833 82.833 -76.5 116.5
s-70.834 59.834 -114.501 78.501s-89.834 28 -138.501 28s-94.667 -9.33301 -138 -28s-81.333 -44.834 -114 -78.501s-58 -72.5 -76 -116.5s-27 -90.333 -27 -139s9 -95 27 -139s43.333 -82.833 76 -116.5s70.667 -59.834 114 -78.501s89.333 -28 138 -28zM398.999 26.001
c-43.333 0 -84 8.5 -122 25.5s-71.167 40.5 -99.5 70.5s-50.333 64.667 -66 104s-23.5 80.666 -23.5 123.999s7.83301 84.666 23.5 123.999s37.667 74 66 104s61.5 53.5 99.5 70.5s78.667 25.5 122 25.5s84.166 -8.5 122.499 -25.5s71.833 -40.5 100.5 -70.5
s50.834 -64.667 66.501 -104s23.5 -80.666 23.5 -123.999s-7.83301 -84.666 -23.5 -123.999s-37.834 -74 -66.501 -104s-62.167 -53.5 -100.5 -70.5s-79.166 -25.5 -122.499 -25.5z" />
    <glyph glyph-name="macron" unicode="&#xaf;" horiz-adv-x="222" 
d="M251 574v32h-279v-32h279z" />
    <glyph glyph-name="degree" unicode="&#xb0;" horiz-adv-x="400" 
d="M200 456c-30 0 -55.5 11.333 -76.5 34s-31.5 49 -31.5 79s10.5 56.333 31.5 79s46.5 34 76.5 34s55.5 -11.333 76.5 -34s31.5 -49 31.5 -79s-10.5 -56.333 -31.5 -79s-46.5 -34 -76.5 -34zM200 426c40 0 74 13.833 102 41.5s42 61.5 42 101.5s-14 73.833 -42 101.5
s-62 41.5 -102 41.5s-74 -13.833 -102 -41.5s-42 -61.5 -42 -101.5s14 -73.833 42 -101.5s62 -41.5 102 -41.5z" />
    <glyph glyph-name="plusminus" unicode="&#xb1;" horiz-adv-x="600" 
d="M280 299h-216v-40h216v-175h40v175h216v40h-216v175h-40v-175zM64 0h472v40h-472v-40z" />
    <glyph glyph-name="twosuperior" unicode="&#xb2;" horiz-adv-x="333" 
d="M305 317h-251.998c-4 0 -6 1.66699 -6 5c0 4 5 9.66699 15 17s26.333 18.666 49 33.999l70 47c20 14 39.5 29.667 58.5 47s34.5 35.333 46.5 54s18 37.334 18 56.001c0 46.667 -13.833 80.834 -41.5 102.501s-62.834 32.5 -105.501 32.5
c-46.667 0 -82.834 -11.667 -108.501 -35s-38.5 -55.666 -38.5 -96.999c0 -18 4 -34.333 12 -49s18 -26.834 30 -36.501s24.5 -17 37.5 -22s24.5 -7.5 34.5 -7.5c4.66699 0 10 2.66699 16 8s12.333 12 19 20l-1 2c-2.66699 0 -6 -0.333008 -10 -1h-9
c-27.333 0 -49.666 8.33301 -66.999 25s-26 36.667 -26 60c0 32 9 56.833 27 74.5s46 26.5 84 26.5s66 -8.83301 84 -26.5s27 -43.167 27 -76.5c0 -14 -4.33301 -28.333 -13 -43s-21.334 -29.334 -38.001 -44.001c-19.333 -18.667 -54 -45 -104 -79
c-34.667 -24 -60.167 -43 -76.5 -57s-24.5 -26.667 -24.5 -38c0 -20.667 9.33301 -31 28 -31h265v32z" />
    <glyph glyph-name="threesuperior" unicode="&#xb3;" horiz-adv-x="333" 
d="M27 673l196.999 -0.00292969c2 0 3 -1.33301 3 -4c0 -1.33301 -2.66699 -4.33301 -8 -9l-144 -127v-34h81c37.333 0 64.833 -8.33301 82.5 -25s26.5 -40 26.5 -70c0 -26 -8.66699 -47 -26 -63s-40.666 -24 -69.999 -24h-145v-32h130c46 0 82.333 10.833 109 32.5
s40 52.834 40 93.501c0 34.667 -12.333 63.334 -37 86.001s-58.667 34 -102 34h-49l138 120c10.667 8.66699 16 19.334 16 32.001c0 6.66699 -2.5 12 -7.5 16s-14.167 6 -27.5 6h-207v-32z" />
    <glyph glyph-name="acute" unicode="&#xb4;" horiz-adv-x="222" 
d="M91 534l133 138h-51l-119 -138h37z" />
    <glyph glyph-name="mu" unicode="&#xb5;" horiz-adv-x="500" 
d="M402 474l0.000976562 -283.999c0 -48.667 -14.667 -88.167 -44 -118.5s-65.333 -45.5 -108 -45.5s-78.667 15.167 -108 45.5s-44 69.833 -44 118.5v284h-38v-702h38v292h2c16.667 -23.333 38.167 -41.5 64.5 -54.5s54.833 -19.5 85.5 -19.5c26 0 50.667 4.66699 74 14
s43.666 22.666 60.999 39.999s30.833 38 40.5 62s14.5 50.333 14.5 79v289h-38z" />
    <glyph glyph-name="paragraph" unicode="&#xb6;" horiz-adv-x="600" 
d="M471 700h-197c-22 0 -43.667 -5 -65 -15s-40.666 -24 -57.999 -42s-31 -38.667 -41 -62s-15 -48 -15 -74s5 -50.667 15 -74s23.667 -44 41 -62s36.666 -32 57.999 -42s43 -15 65 -15v-404h38v754h121v-754h38v790z" />
    <glyph glyph-name="periodcentered" unicode="&#xb7;" horiz-adv-x="278" 
d="M102 237c0 -10 3.66699 -18.667 11 -26s16 -11 26 -11s18.667 3.66699 26 11s11 16 11 26s-3.66699 18.667 -11 26s-16 11 -26 11s-18.667 -3.66699 -26 -11s-11 -16 -11 -26z" />
    <glyph glyph-name="periodcentered" unicode="&#x2219;" horiz-adv-x="278" 
d="M102 237c0 -10 3.66699 -18.667 11 -26s16 -11 26 -11s18.667 3.66699 26 11s11 16 11 26s-3.66699 18.667 -11 26s-16 11 -26 11s-18.667 -3.66699 -26 -11s-11 -16 -11 -26z" />
    <glyph glyph-name="cedilla" unicode="&#xb8;" horiz-adv-x="222" 
d="M3 -171c13.333 -6 27.667 -10.834 43 -14.501s30 -5.5 44 -5.5c27.333 0 52.166 6 74.499 18s33.5 30.667 33.5 56c0 20.667 -7.16699 37.5 -21.5 50.5s-32.166 19.5 -53.499 19.5c-6.66699 0 -13.667 -0.666992 -21 -2s-13 -3.33301 -17 -6l-2 2l48 56h-34l-56 -75
l16 -13c5.33301 2.66699 12.5 5.33398 21.5 8.00098s16.167 4 21.5 4c16.667 0 30.5 -3.5 41.5 -10.5s16.5 -18.5 16.5 -34.5c0 -14.667 -6.5 -26.167 -19.5 -34.5s-27.833 -12.5 -44.5 -12.5c-28 0 -54 6 -78 18z" />
    <glyph glyph-name="onesuperior" unicode="&#xb9;" horiz-adv-x="333" 
d="M84 673h67v-388h34v420h-95z" />
    <glyph glyph-name="ordmasculine" unicode="&#xba;" horiz-adv-x="334" 
d="M291 562c0 -31.333 -12 -58.5 -36 -81.5s-53.333 -34.5 -88 -34.5s-64 11.5 -88 34.5s-36 50.167 -36 81.5c0 32.667 11.833 60.834 35.5 84.501s53.167 35.5 88.5 35.5s64.833 -11.833 88.5 -35.5s35.5 -51.834 35.5 -84.501zM323 564c0 40.667 -15 75.5 -45 104.5
s-67 43.5 -111 43.5s-81 -14.5 -111 -43.5s-45 -63.833 -45 -104.5s15 -75.5 45 -104.5s67 -43.5 111 -43.5s81 14.5 111 43.5s45 63.833 45 104.5z" />
    <glyph glyph-name="guillemotright" unicode="&#xbb;" horiz-adv-x="389" 
d="M222 82l120 155l-120 155h-47l120 -155l-120 -155h47zM99 82l120 155l-120 155h-47l120 -155l-120 -155h47z" />
    <glyph glyph-name="onequarter" unicode="&#xbc;" horiz-adv-x="834" 
d="M200 -12l464 724h-39l-462 -724h37zM64 674h72v-392h34v424h-99zM713 140l-176 0.000976562c-6.66699 0 -10 2.66699 -10 8c0 4 1 7 3 9v1l178 269h-37l-154 -234c-1.33301 -2 -2.33301 -3.66699 -3 -5c-10 -14.667 -16.333 -24.834 -19 -30.501s-4 -12.167 -4 -19.5
c0 -20 11 -30 33 -30h190v-108h33v108h68v32h-68v283c0 2.66699 -0.333008 4 -1 4s-1.66699 -0.666992 -3 -2l-30 -31v-254z" />
    <glyph glyph-name="onehalf" unicode="&#xbd;" horiz-adv-x="834" 
d="M175 -12l464 724h-39l-462 -724h37zM815 32h-251.998c-4 0 -6 1.66699 -6 5c0 4 5 9.66699 15 17s26.333 18.666 49 33.999l70 47c20 14 39.5 29.667 58.5 47s34.5 35.333 46.5 54s18 37.334 18 56.001c0 46.667 -13.833 80.834 -41.5 102.501
s-62.834 32.5 -105.501 32.5c-46.667 0 -82.834 -11.667 -108.501 -35s-38.5 -55.666 -38.5 -96.999c0 -18 4 -34.333 12 -49s18 -26.834 30 -36.501s24.5 -17 37.5 -22s24.5 -7.5 34.5 -7.5c4.66699 0 10 2.66699 16 8s12.333 12 19 20l-1 2
c-2.66699 0 -6 -0.333008 -10 -1h-9c-27.333 0 -49.666 8.33301 -66.999 25s-26 36.667 -26 60c0 32 9 56.833 27 74.5s46 26.5 84 26.5s66 -8.83301 84 -26.5s27 -43.167 27 -76.5c0 -14 -4.33301 -28.333 -13 -43s-21.334 -29.334 -38.001 -44.001
c-19.333 -18.667 -54 -45 -104 -79c-34.667 -24 -60.167 -43 -76.5 -57s-24.5 -26.667 -24.5 -38c0 -20.667 9.33301 -31 28 -31h265v32zM84.002 673h67v-388h34v420h-95z" />
    <glyph glyph-name="threequarters" unicode="&#xbe;" horiz-adv-x="834" 
d="M713 142l-176 0.000976562c-6.66699 0 -10 2.66699 -10 8c0 4 1 7 3 9v1l178 269h-37l-154 -234c-1.33301 -2 -2.33301 -3.66699 -3 -5c-10 -14.667 -16.333 -24.834 -19 -30.501s-4 -12.167 -4 -19.5c0 -20 11 -30 33 -30h190v-108h33v108h68v32h-68v283
c0 2.66699 -0.333008 4 -1 4s-1.66699 -0.666992 -3 -2l-30 -31v-254zM233 -11.999l464 724h-39l-462 -724h37zM27 673.001l196.999 -0.00292969c2 0 3 -1.33301 3 -4c0 -1.33301 -2.66699 -4.33301 -8 -9l-144 -127v-34h81c37.333 0 64.833 -8.33301 82.5 -25
s26.5 -40 26.5 -70c0 -26 -8.66699 -47 -26 -63s-40.666 -24 -69.999 -24h-145v-32h130c46 0 82.333 10.833 109 32.5s40 52.834 40 93.501c0 34.667 -12.333 63.334 -37 86.001s-58.667 34 -102 34h-49l138 120c10.667 8.66699 16 19.334 16 32.001
c0 6.66699 -2.5 12 -7.5 16s-14.167 6 -27.5 6h-207v-32z" />
    <glyph glyph-name="questiondown" unicode="&#xbf;" horiz-adv-x="444" 
d="M382 -30c0 -44.667 -14.834 -82.5 -44.501 -113.5s-68.167 -46.5 -115.5 -46.5s-85.833 15.5 -115.5 46.5s-44.5 68.833 -44.5 113.5c0 32.667 5.5 60.334 16.5 83.001s25.833 40.167 44.5 52.5s39.334 21.166 62.001 26.499s47 8 73 8v216h-38v-180
c-22.667 0 -45.5 -3.83301 -68.5 -11.5s-44.333 -19.667 -64 -36s-35.5 -37.833 -47.5 -64.5s-18 -58 -18 -94c0 -56 18.333 -103 55 -141s85 -57 145 -57s108.333 19 145 57s55 85 55 141h-40zM276.999 452c0 10.667 -3.66699 19.667 -11 27s-16.333 11 -27 11
s-19.667 -3.66699 -27 -11s-11 -16.333 -11 -27s3.66699 -19.667 11 -27s16.333 -11 27 -11s19.667 3.66699 27 11s11 16.333 11 27z" />
    <glyph glyph-name="Agrave" unicode="&#xc0;" horiz-adv-x="611" 
d="M363 741l-119 138h-51l133 -138h37zM546 471c0 75.333 -21.667 134.333 -65 177s-102 64 -176 64s-132.667 -21.333 -176 -64s-65 -101.667 -65 -177v-471h42v484c0 58.667 18.167 105 54.5 139s84.5 51 144.5 51s108.167 -17 144.5 -51s54.5 -80.333 54.5 -139v-106
h-358v-36h358v-342h42v471z" />
    <glyph glyph-name="Aacute" unicode="&#xc1;" horiz-adv-x="611" 
d="M286 741l133 138h-51l-119 -138h37zM546 471c0 75.333 -21.667 134.333 -65 177s-102 64 -176 64s-132.667 -21.333 -176 -64s-65 -101.667 -65 -177v-471h42v484c0 58.667 18.167 105 54.5 139s84.5 51 144.5 51s108.167 -17 144.5 -51s54.5 -80.333 54.5 -139v-106
h-358v-36h358v-342h42v471z" />
    <glyph glyph-name="Acircumflex" unicode="&#xc2;" horiz-adv-x="611" 
d="M332 879h-54l-107 -138h40l94 114l94 -114h42zM546 471c0 75.333 -21.667 134.333 -65 177s-102 64 -176 64s-132.667 -21.333 -176 -64s-65 -101.667 -65 -177v-471h42v484c0 58.667 18.167 105 54.5 139s84.5 51 144.5 51s108.167 -17 144.5 -51
s54.5 -80.333 54.5 -139v-106h-358v-36h358v-342h42v471z" />
    <glyph glyph-name="Atilde" unicode="&#xc3;" horiz-adv-x="611" 
d="M190 756c2.66699 16.667 7.83301 29.834 15.5 39.501s19.167 14.5 34.5 14.5c6.66699 0 14.5 -2 23.5 -6s20.833 -10.333 35.5 -19c16.667 -9.33301 30.667 -16.5 42 -21.5s22 -7.5 32 -7.5c22 0 39.667 8.66699 53 26s22 38 26 62h-30
c-2.66699 -16.667 -7.66699 -29.834 -15 -39.501s-19 -14.5 -35 -14.5c-6.66699 0 -14.5 2 -23.5 6s-20.833 10.333 -35.5 19c-16.667 9.33301 -30.667 16.5 -42 21.5s-22 7.5 -32 7.5c-22 0 -39.667 -8.66699 -53 -26s-22 -38 -26 -62h30zM545.999 471
c0 75.333 -21.667 134.333 -65 177s-102 64 -176 64s-132.667 -21.333 -176 -64s-65 -101.667 -65 -177v-471h42v484c0 58.667 18.167 105 54.5 139s84.5 51 144.5 51s108.167 -17 144.5 -51s54.5 -80.333 54.5 -139v-106h-358v-36h358v-342h42v471z" />
    <glyph glyph-name="Adieresis" unicode="&#xc4;" horiz-adv-x="611" 
d="M193 799c0 -9.33301 3.33301 -17.333 10 -24s14.667 -10 24 -10s17.333 3.33301 24 10s10 14.667 10 24s-3.33301 17.333 -10 24s-14.667 10 -24 10s-17.333 -3.33301 -24 -10s-10 -14.667 -10 -24zM351 799c0 -9.33301 3.33301 -17.333 10 -24s14.667 -10 24 -10
s17.333 3.33301 24 10s10 14.667 10 24s-3.33301 17.333 -10 24s-14.667 10 -24 10s-17.333 -3.33301 -24 -10s-10 -14.667 -10 -24zM546 471c0 75.333 -21.667 134.333 -65 177s-102 64 -176 64s-132.667 -21.333 -176 -64s-65 -101.667 -65 -177v-471h42v484
c0 58.667 18.167 105 54.5 139s84.5 51 144.5 51s108.167 -17 144.5 -51s54.5 -80.333 54.5 -139v-106h-358v-36h358v-342h42v471z" />
    <glyph glyph-name="Aring" unicode="&#xc5;" horiz-adv-x="611" 
d="M237 838c0 19.333 6.66699 35.666 20 48.999s29.666 20 48.999 20s35.666 -6.66699 48.999 -20s20 -29.666 20 -48.999s-6.66699 -35.666 -20 -48.999s-29.666 -20 -48.999 -20s-35.666 6.66699 -48.999 20s-20 29.666 -20 48.999zM209 838
c0 -27.333 9.33301 -50.333 28 -69s41.667 -28 69 -28s50.333 9.33301 69 28s28 41.667 28 69s-9.33301 50.333 -28 69s-41.667 28 -69 28s-50.333 -9.33301 -69 -28s-28 -41.667 -28 -69zM546 471c0 75.333 -21.667 134.333 -65 177s-102 64 -176 64
s-132.667 -21.333 -176 -64s-65 -101.667 -65 -177v-471h42v484c0 58.667 18.167 105 54.5 139s84.5 51 144.5 51s108.167 -17 144.5 -51s54.5 -80.333 54.5 -139v-106h-358v-36h358v-342h42v471z" />
    <glyph glyph-name="AE" unicode="&#xc6;" horiz-adv-x="944" 
d="M907 342l-0.000976562 36.001h-381c0 34 7.5 68 22.5 102s36.333 65 64 93s60.334 50.167 98.001 66.5s77.834 24.5 120.501 24.5h76v36h-78c-64.667 0 -124.834 -16.167 -180.501 -48.5s-97.5 -77.5 -125.5 -135.5h-2c-10 62 -35.333 110.167 -76 144.5
s-92.667 51.5 -156 51.5c-74 0 -132 -22.833 -174 -68.5s-63 -108.834 -63 -189.501v-454h42v462c0 65.333 17.667 117 53 155s82.666 57 141.999 57s106.5 -18.833 141.5 -56.5s52.5 -89.5 52.5 -155.5v-84h-349v-36h349v-342h44v174h2
c28 -54.667 69.333 -97.334 124 -128.001s113.334 -46 176.001 -46h78v36h-62c-36.667 0 -73.667 6.5 -111 19.5s-71.833 32.333 -103.5 58s-57 57.834 -76 96.501s-28.5 82.667 -28.5 132h381z" />
    <glyph glyph-name="Ccedilla" unicode="&#xc7;" horiz-adv-x="500" 
d="M252 -171c13.333 -6 27.667 -10.834 43 -14.501s30 -5.5 44 -5.5c27.333 0 52.166 6 74.499 18s33.5 30.667 33.5 56c0 20.667 -7.16699 37.5 -21.5 50.5s-32.166 19.5 -53.499 19.5c-6.66699 0 -13.667 -0.666992 -21 -2s-13 -3.33301 -17 -6l-2 2l48 56h-34l-56 -75
l16 -13c5.33301 2.66699 12.5 5.33398 21.5 8.00098s16.167 4 21.5 4c16.667 0 30.5 -3.5 41.5 -10.5s16.5 -18.5 16.5 -34.5c0 -14.667 -6.5 -26.167 -19.5 -34.5s-27.833 -12.5 -44.5 -12.5c-28 0 -54 6 -78 18zM475.001 35.999h-81c-37.333 0 -74.5 6.5 -111.5 19.5
s-70.5 32.667 -100.5 59s-53.833 59.333 -71.5 99s-26.5 85.167 -26.5 136.5s8.83301 96.833 26.5 136.5s41.5 72.667 71.5 99s63.5 46 100.5 59s74.167 19.5 111.5 19.5h82v36h-90c-44 0 -86.667 -7.66699 -128 -23s-78.5 -38.166 -111.5 -68.499s-59 -67.333 -78 -111
s-28.5 -92.834 -28.5 -147.501s9.5 -103.834 28.5 -147.501s45 -80.667 78 -111s70.167 -53.166 111.5 -68.499s84 -23 128 -23h89v36z" />
    <glyph glyph-name="Egrave" unicode="&#xc8;" horiz-adv-x="500" 
d="M388 741l-119 138h-51l133 -138h37zM452 378l-384 -0.000976562c0 34 7.66699 68 23 102s36.833 65 64.5 93s60.334 50.167 98.001 66.5s77.834 24.5 120.501 24.5h78v36h-80c-44 0 -86.667 -7.66699 -128 -23s-78.5 -38.166 -111.5 -68.499s-59 -67.333 -78 -111
s-28.5 -92.834 -28.5 -147.501s9.5 -103.834 28.5 -147.501s45 -80.667 78 -111s70.167 -53.166 111.5 -68.499s84 -23 128 -23h80v36h-64c-36.667 0 -73.834 6.5 -111.501 19.5s-72.334 32.333 -104.001 58s-57 57.834 -76 96.501s-28.5 82.667 -28.5 132h384v36z" />
    <glyph glyph-name="Eacute" unicode="&#xc9;" horiz-adv-x="500" 
d="M311 741l133 138h-51l-119 -138h37zM452 378l-384 -0.000976562c0 34 7.66699 68 23 102s36.833 65 64.5 93s60.334 50.167 98.001 66.5s77.834 24.5 120.501 24.5h78v36h-80c-44 0 -86.667 -7.66699 -128 -23s-78.5 -38.166 -111.5 -68.499s-59 -67.333 -78 -111
s-28.5 -92.834 -28.5 -147.501s9.5 -103.834 28.5 -147.501s45 -80.667 78 -111s70.167 -53.166 111.5 -68.499s84 -23 128 -23h80v36h-64c-36.667 0 -73.834 6.5 -111.501 19.5s-72.334 32.333 -104.001 58s-57 57.834 -76 96.501s-28.5 82.667 -28.5 132h384v36z" />
    <glyph glyph-name="Ecircumflex" unicode="&#xca;" horiz-adv-x="500" 
d="M357 879h-54l-107 -138h40l94 114l94 -114h42zM452 378l-384 -0.000976562c0 34 7.66699 68 23 102s36.833 65 64.5 93s60.334 50.167 98.001 66.5s77.834 24.5 120.501 24.5h78v36h-80c-44 0 -86.667 -7.66699 -128 -23s-78.5 -38.166 -111.5 -68.499
s-59 -67.333 -78 -111s-28.5 -92.834 -28.5 -147.501s9.5 -103.834 28.5 -147.501s45 -80.667 78 -111s70.167 -53.166 111.5 -68.499s84 -23 128 -23h80v36h-64c-36.667 0 -73.834 6.5 -111.501 19.5s-72.334 32.333 -104.001 58s-57 57.834 -76 96.501
s-28.5 82.667 -28.5 132h384v36z" />
    <glyph glyph-name="Edieresis" unicode="&#xcb;" horiz-adv-x="500" 
d="M218 799c0 -9.33301 3.33301 -17.333 10 -24s14.667 -10 24 -10s17.333 3.33301 24 10s10 14.667 10 24s-3.33301 17.333 -10 24s-14.667 10 -24 10s-17.333 -3.33301 -24 -10s-10 -14.667 -10 -24zM376 799c0 -9.33301 3.33301 -17.333 10 -24s14.667 -10 24 -10
s17.333 3.33301 24 10s10 14.667 10 24s-3.33301 17.333 -10 24s-14.667 10 -24 10s-17.333 -3.33301 -24 -10s-10 -14.667 -10 -24zM452 378l-384 -0.000976562c0 34 7.66699 68 23 102s36.833 65 64.5 93s60.334 50.167 98.001 66.5s77.834 24.5 120.501 24.5h78v36h-80
c-44 0 -86.667 -7.66699 -128 -23s-78.5 -38.166 -111.5 -68.499s-59 -67.333 -78 -111s-28.5 -92.834 -28.5 -147.501s9.5 -103.834 28.5 -147.501s45 -80.667 78 -111s70.167 -53.166 111.5 -68.499s84 -23 128 -23h80v36h-64c-36.667 0 -73.834 6.5 -111.501 19.5
s-72.334 32.333 -104.001 58s-57 57.834 -76 96.501s-28.5 82.667 -28.5 132h384v36z" />
    <glyph glyph-name="Igrave" unicode="&#xcc;" horiz-adv-x="222" 
d="M168 741l-119 138h-51l133 -138h37zM132 0v700h-42v-700h42z" />
    <glyph glyph-name="Iacute" unicode="&#xcd;" horiz-adv-x="222" 
d="M91 741l133 138h-51l-119 -138h37zM132 0v700h-42v-700h42z" />
    <glyph glyph-name="Icircumflex" unicode="&#xce;" horiz-adv-x="222" 
d="M137 879h-54l-107 -138h40l94 114l94 -114h42zM132 0v700h-42v-700h42z" />
    <glyph glyph-name="Idieresis" unicode="&#xcf;" horiz-adv-x="222" 
d="M-2 799c0 -9.33301 3.33301 -17.333 10 -24s14.667 -10 24 -10s17.333 3.33301 24 10s10 14.667 10 24s-3.33301 17.333 -10 24s-14.667 10 -24 10s-17.333 -3.33301 -24 -10s-10 -14.667 -10 -24zM156 799c0 -9.33301 3.33301 -17.333 10 -24s14.667 -10 24 -10
s17.333 3.33301 24 10s10 14.667 10 24s-3.33301 17.333 -10 24s-14.667 10 -24 10s-17.333 -3.33301 -24 -10s-10 -14.667 -10 -24zM132 0v700h-42v-700h42z" />
    <glyph glyph-name="Eth" unicode="&#xd0;" horiz-adv-x="611" 
d="M242 0c45.333 0 88.001 8.33301 128.001 25s75.167 40.5 105.5 71.5s53.833 68 70.5 111s25 90.5 25 142.5c0 50.667 -9.5 97.5 -28.5 140.5s-45.167 80.167 -78.5 111.5s-71.333 55.5 -114 72.5s-87.334 25.5 -134.001 25.5h-152v-316h-74v-36h74v-348h42v348h244v36
h-244v278h94c46.667 0 90 -8 130 -24s74.833 -38.167 104.5 -66.5s52.5 -61.666 68.5 -99.999s24 -78.833 24 -121.5c0 -40.667 -6.5 -79.834 -19.5 -117.501s-32 -71.167 -57 -100.5s-55.5 -52.333 -91.5 -69s-76.333 -25 -121 -25h-97v-38h101z" />
    <glyph glyph-name="Ntilde" unicode="&#xd1;" horiz-adv-x="611" 
d="M202 756c2.66699 16.667 7.83301 29.834 15.5 39.501s19.167 14.5 34.5 14.5c6.66699 0 14.5 -2 23.5 -6s20.833 -10.333 35.5 -19c16.667 -9.33301 30.667 -16.5 42 -21.5s22 -7.5 32 -7.5c22 0 39.667 8.66699 53 26s22 38 26 62h-30
c-2.66699 -16.667 -7.66699 -29.834 -15 -39.501s-19 -14.5 -35 -14.5c-6.66699 0 -14.5 2 -23.5 6s-20.833 10.333 -35.5 19c-16.667 9.33301 -30.667 16.5 -42 21.5s-22 7.5 -32 7.5c-22 0 -39.667 -8.66699 -53 -26s-22 -38 -26 -62h30zM109.999 0l0.00195312 655.999
c0 12 4 18 12 18c4 0 7.83301 -2.66699 11.5 -8s9.16699 -15.666 16.5 -30.999l278 -599c6 -13.333 14 -24.666 24 -33.999s23.333 -14 40 -14c34 0 51 16.667 51 50v674h-42v-663c0 -12.667 -3.66699 -19 -11 -19c-6.66699 0 -12.334 4.66699 -17.001 14l-293 626
c-8 17.333 -16.333 28.666 -25 33.999s-20.334 8 -35.001 8c-18 0 -31.167 -5.5 -39.5 -16.5s-12.5 -24.167 -12.5 -39.5v-656h42z" />
    <glyph glyph-name="Ograve" unicode="&#xd2;" horiz-adv-x="778" 
d="M446 741l-119 138h-51l133 -138h37zM388 -12c48.667 0 94.834 9.33301 138.501 28s81.834 44.834 114.501 78.501s58.167 72.5 76.5 116.5s27.5 90.333 27.5 139s-9.16699 95 -27.5 139s-43.833 82.833 -76.5 116.5s-70.834 59.834 -114.501 78.501
s-89.834 28 -138.501 28s-94.667 -9.33301 -138 -28s-81.333 -44.834 -114 -78.501s-58 -72.5 -76 -116.5s-27 -90.333 -27 -139s9 -95 27 -139s43.333 -82.833 76 -116.5s70.667 -59.834 114 -78.501s89.333 -28 138 -28zM388 26c-43.333 0 -84 8.5 -122 25.5
s-71.167 40.5 -99.5 70.5s-50.333 64.667 -66 104s-23.5 80.666 -23.5 123.999s7.83301 84.666 23.5 123.999s37.667 74 66 104s61.5 53.5 99.5 70.5s78.667 25.5 122 25.5s84.166 -8.5 122.499 -25.5s71.833 -40.5 100.5 -70.5s50.834 -64.667 66.501 -104
s23.5 -80.666 23.5 -123.999s-7.83301 -84.666 -23.5 -123.999s-37.834 -74 -66.501 -104s-62.167 -53.5 -100.5 -70.5s-79.166 -25.5 -122.499 -25.5z" />
    <glyph glyph-name="Oacute" unicode="&#xd3;" horiz-adv-x="778" 
d="M369 741l133 138h-51l-119 -138h37zM388 -12c48.667 0 94.834 9.33301 138.501 28s81.834 44.834 114.501 78.501s58.167 72.5 76.5 116.5s27.5 90.333 27.5 139s-9.16699 95 -27.5 139s-43.833 82.833 -76.5 116.5s-70.834 59.834 -114.501 78.501
s-89.834 28 -138.501 28s-94.667 -9.33301 -138 -28s-81.333 -44.834 -114 -78.501s-58 -72.5 -76 -116.5s-27 -90.333 -27 -139s9 -95 27 -139s43.333 -82.833 76 -116.5s70.667 -59.834 114 -78.501s89.333 -28 138 -28zM388 26c-43.333 0 -84 8.5 -122 25.5
s-71.167 40.5 -99.5 70.5s-50.333 64.667 -66 104s-23.5 80.666 -23.5 123.999s7.83301 84.666 23.5 123.999s37.667 74 66 104s61.5 53.5 99.5 70.5s78.667 25.5 122 25.5s84.166 -8.5 122.499 -25.5s71.833 -40.5 100.5 -70.5s50.834 -64.667 66.501 -104
s23.5 -80.666 23.5 -123.999s-7.83301 -84.666 -23.5 -123.999s-37.834 -74 -66.501 -104s-62.167 -53.5 -100.5 -70.5s-79.166 -25.5 -122.499 -25.5z" />
    <glyph glyph-name="Ocircumflex" unicode="&#xd4;" horiz-adv-x="778" 
d="M415 879h-54l-107 -138h40l94 114l94 -114h42zM388 -12c48.667 0 94.834 9.33301 138.501 28s81.834 44.834 114.501 78.501s58.167 72.5 76.5 116.5s27.5 90.333 27.5 139s-9.16699 95 -27.5 139s-43.833 82.833 -76.5 116.5s-70.834 59.834 -114.501 78.501
s-89.834 28 -138.501 28s-94.667 -9.33301 -138 -28s-81.333 -44.834 -114 -78.501s-58 -72.5 -76 -116.5s-27 -90.333 -27 -139s9 -95 27 -139s43.333 -82.833 76 -116.5s70.667 -59.834 114 -78.501s89.333 -28 138 -28zM388 26c-43.333 0 -84 8.5 -122 25.5
s-71.167 40.5 -99.5 70.5s-50.333 64.667 -66 104s-23.5 80.666 -23.5 123.999s7.83301 84.666 23.5 123.999s37.667 74 66 104s61.5 53.5 99.5 70.5s78.667 25.5 122 25.5s84.166 -8.5 122.499 -25.5s71.833 -40.5 100.5 -70.5s50.834 -64.667 66.501 -104
s23.5 -80.666 23.5 -123.999s-7.83301 -84.666 -23.5 -123.999s-37.834 -74 -66.501 -104s-62.167 -53.5 -100.5 -70.5s-79.166 -25.5 -122.499 -25.5z" />
    <glyph glyph-name="Otilde" unicode="&#xd5;" horiz-adv-x="778" 
d="M273 756c2.66699 16.667 7.83301 29.834 15.5 39.501s19.167 14.5 34.5 14.5c6.66699 0 14.5 -2 23.5 -6s20.833 -10.333 35.5 -19c16.667 -9.33301 30.667 -16.5 42 -21.5s22 -7.5 32 -7.5c22 0 39.667 8.66699 53 26s22 38 26 62h-30
c-2.66699 -16.667 -7.66699 -29.834 -15 -39.501s-19 -14.5 -35 -14.5c-6.66699 0 -14.5 2 -23.5 6s-20.833 10.333 -35.5 19c-16.667 9.33301 -30.667 16.5 -42 21.5s-22 7.5 -32 7.5c-22 0 -39.667 -8.66699 -53 -26s-22 -38 -26 -62h30zM387.999 -12
c48.667 0 94.834 9.33301 138.501 28s81.834 44.834 114.501 78.501s58.167 72.5 76.5 116.5s27.5 90.333 27.5 139s-9.16699 95 -27.5 139s-43.833 82.833 -76.5 116.5s-70.834 59.834 -114.501 78.501s-89.834 28 -138.501 28s-94.667 -9.33301 -138 -28
s-81.333 -44.834 -114 -78.501s-58 -72.5 -76 -116.5s-27 -90.333 -27 -139s9 -95 27 -139s43.333 -82.833 76 -116.5s70.667 -59.834 114 -78.501s89.333 -28 138 -28zM387.999 26c-43.333 0 -84 8.5 -122 25.5s-71.167 40.5 -99.5 70.5s-50.333 64.667 -66 104
s-23.5 80.666 -23.5 123.999s7.83301 84.666 23.5 123.999s37.667 74 66 104s61.5 53.5 99.5 70.5s78.667 25.5 122 25.5s84.166 -8.5 122.499 -25.5s71.833 -40.5 100.5 -70.5s50.834 -64.667 66.501 -104s23.5 -80.666 23.5 -123.999s-7.83301 -84.666 -23.5 -123.999
s-37.834 -74 -66.501 -104s-62.167 -53.5 -100.5 -70.5s-79.166 -25.5 -122.499 -25.5z" />
    <glyph glyph-name="Odieresis" unicode="&#xd6;" horiz-adv-x="778" 
d="M276 799c0 -9.33301 3.33301 -17.333 10 -24s14.667 -10 24 -10s17.333 3.33301 24 10s10 14.667 10 24s-3.33301 17.333 -10 24s-14.667 10 -24 10s-17.333 -3.33301 -24 -10s-10 -14.667 -10 -24zM434 799c0 -9.33301 3.33301 -17.333 10 -24s14.667 -10 24 -10
s17.333 3.33301 24 10s10 14.667 10 24s-3.33301 17.333 -10 24s-14.667 10 -24 10s-17.333 -3.33301 -24 -10s-10 -14.667 -10 -24zM388 -12c48.667 0 94.834 9.33301 138.501 28s81.834 44.834 114.501 78.501s58.167 72.5 76.5 116.5s27.5 90.333 27.5 139
s-9.16699 95 -27.5 139s-43.833 82.833 -76.5 116.5s-70.834 59.834 -114.501 78.501s-89.834 28 -138.501 28s-94.667 -9.33301 -138 -28s-81.333 -44.834 -114 -78.501s-58 -72.5 -76 -116.5s-27 -90.333 -27 -139s9 -95 27 -139s43.333 -82.833 76 -116.5
s70.667 -59.834 114 -78.501s89.333 -28 138 -28zM388 26c-43.333 0 -84 8.5 -122 25.5s-71.167 40.5 -99.5 70.5s-50.333 64.667 -66 104s-23.5 80.666 -23.5 123.999s7.83301 84.666 23.5 123.999s37.667 74 66 104s61.5 53.5 99.5 70.5s78.667 25.5 122 25.5
s84.166 -8.5 122.499 -25.5s71.833 -40.5 100.5 -70.5s50.834 -64.667 66.501 -104s23.5 -80.666 23.5 -123.999s-7.83301 -84.666 -23.5 -123.999s-37.834 -74 -66.501 -104s-62.167 -53.5 -100.5 -70.5s-79.166 -25.5 -122.499 -25.5z" />
    <glyph glyph-name="multiply" unicode="&#xd7;" horiz-adv-x="600" 
d="M508 0l28 26l-210 211l210 211l-28 26l-208 -210l-208 210l-28 -26l210 -211l-210 -211l28 -26l208 210z" />
    <glyph glyph-name="Oslash" unicode="&#xd8;" horiz-adv-x="778" 
d="M628 559c22 -26.667 39.667 -58.167 53 -94.5s20 -74.5 20 -114.5c0 -43.333 -7.83301 -84.666 -23.5 -123.999s-37.834 -74 -66.501 -104s-62.167 -53.5 -100.5 -70.5s-79.166 -25.5 -122.499 -25.5c-41.333 0 -80.333 7.66699 -117 23s-68.667 36.666 -96 63.999z
M150 141c-22 24.667 -39.667 55.501 -53 92.501s-20 75.833 -20 116.5c0 43.333 7.83301 84.666 23.5 123.999s37.667 74 66 104s61.5 53.5 99.5 70.5s78.667 25.5 122 25.5c40.667 0 79 -7.5 115 -22.5s68.667 -36.5 98 -64.5zM49 -11.999l96.998 97
c30.667 -30 67 -53.667 109 -71s86.333 -26 133 -26c48.667 0 94.834 9.33301 138.501 28s81.834 44.834 114.501 78.501s58.167 72.5 76.5 116.5s27.5 90.333 27.5 139c0 44.667 -7.83301 87.667 -23.5 129s-37.5 78 -65.5 110l124 123h-52l-98 -97
c-32.667 30.667 -69.667 54.5 -111 71.5s-85 25.5 -131 25.5c-48.667 0 -94.667 -9.33301 -138 -28s-81.333 -44.834 -114 -78.501s-58 -72.5 -76 -116.5s-27 -90.333 -27 -139c0 -44 7.66699 -86.5 23 -127.5s37 -77.833 65 -110.5l-124 -124h52z" />
    <glyph glyph-name="Ugrave" unicode="&#xd9;" horiz-adv-x="611" 
d="M363 741l-119 138h-51l133 -138h37zM64 700v-471c0 -75.333 21.667 -134.333 65 -177s102 -64 176 -64s132.667 21.333 176 64s65 101.667 65 177v471h-42v-484c0 -58.667 -18.167 -105 -54.5 -139s-84.5 -51 -144.5 -51s-108.167 17 -144.5 51s-54.5 80.333 -54.5 139
v484h-42z" />
    <glyph glyph-name="Uacute" unicode="&#xda;" horiz-adv-x="611" 
d="M286 741l133 138h-51l-119 -138h37zM64 700v-471c0 -75.333 21.667 -134.333 65 -177s102 -64 176 -64s132.667 21.333 176 64s65 101.667 65 177v471h-42v-484c0 -58.667 -18.167 -105 -54.5 -139s-84.5 -51 -144.5 -51s-108.167 17 -144.5 51s-54.5 80.333 -54.5 139
v484h-42z" />
    <glyph glyph-name="Ucircumflex" unicode="&#xdb;" horiz-adv-x="611" 
d="M332 879h-54l-107 -138h40l94 114l94 -114h42zM64 700v-471c0 -75.333 21.667 -134.333 65 -177s102 -64 176 -64s132.667 21.333 176 64s65 101.667 65 177v471h-42v-484c0 -58.667 -18.167 -105 -54.5 -139s-84.5 -51 -144.5 -51s-108.167 17 -144.5 51
s-54.5 80.333 -54.5 139v484h-42z" />
    <glyph glyph-name="Udieresis" unicode="&#xdc;" horiz-adv-x="611" 
d="M193 799c0 -9.33301 3.33301 -17.333 10 -24s14.667 -10 24 -10s17.333 3.33301 24 10s10 14.667 10 24s-3.33301 17.333 -10 24s-14.667 10 -24 10s-17.333 -3.33301 -24 -10s-10 -14.667 -10 -24zM351 799c0 -9.33301 3.33301 -17.333 10 -24s14.667 -10 24 -10
s17.333 3.33301 24 10s10 14.667 10 24s-3.33301 17.333 -10 24s-14.667 10 -24 10s-17.333 -3.33301 -24 -10s-10 -14.667 -10 -24zM64 700v-471c0 -75.333 21.667 -134.333 65 -177s102 -64 176 -64s132.667 21.333 176 64s65 101.667 65 177v471h-42v-484
c0 -58.667 -18.167 -105 -54.5 -139s-84.5 -51 -144.5 -51s-108.167 17 -144.5 51s-54.5 80.333 -54.5 139v484h-42z" />
    <glyph glyph-name="Yacute" unicode="&#xdd;" 
d="M258 741l133 138h-51l-119 -138h37zM450 700l0.00195312 -194c0 -52.667 -16 -95.167 -48 -127.5s-73.333 -48.5 -124 -48.5s-92 16.167 -124 48.5s-48 74.833 -48 127.5v194h-42v-191c0 -32.667 5.16699 -62.5 15.5 -89.5s24.666 -50 42.999 -69s39 -33.5 62 -43.5
s47.167 -15 72.5 -15v-292h42v292c25.333 0 49.5 5 72.5 15s43.667 24.5 62 43.5s32.666 42 42.999 69s15.5 56.833 15.5 89.5v191h-42z" />
    <glyph glyph-name="Thorn" unicode="&#xde;" horiz-adv-x="500" 
d="M139 158l136 0.00292969c62.667 0 114.167 19.167 154.5 57.5s60.5 90.833 60.5 157.5s-20.333 119.167 -61 157.5s-92.667 57.5 -156 57.5c-37.333 0 -70.5 -6.83301 -99.5 -20.5s-52.167 -32.167 -69.5 -55.5h-2v188h-42v-700h42v386c0 22 4.16699 43 12.5 63
s20.333 37.667 36 53s34.167 27.166 55.5 35.499s44.333 12.5 69 12.5c50.667 0 91.834 -15.833 123.501 -47.5s47.5 -74.834 47.5 -129.501s-15.833 -97.834 -47.5 -129.501s-72.834 -47.5 -123.501 -47.5h-136v-38z" />
    <glyph glyph-name="germandbls" unicode="&#xdf;" 
d="M6 392l60 -0.00292969v-392h40v530c0 38 13.167 71.5 39.5 100.5s62.5 43.5 108.5 43.5c32.667 0 60.667 -7.66699 84 -23s35 -39.666 35 -72.999c0 -25.333 -7.66699 -45.333 -23 -60s-37 -29.334 -65 -44.001c-20 -10 -34.5 -18.667 -43.5 -26s-13.5 -16.333 -13.5 -27
c0 -12.667 6.16699 -23 18.5 -31s32.166 -17.333 59.499 -28c24.667 -9.33301 45.334 -18.166 62.001 -26.499s33 -19.5 49 -33.5s28.833 -31.5 38.5 -52.5s14.5 -46.167 14.5 -75.5c0 -40.667 -16.167 -73.5 -48.5 -98.5s-79.833 -37.5 -142.5 -37.5h-132v-38h128
c156.667 0 235 62 235 186c0 32.667 -6.83301 61.5 -20.5 86.5s-31 45.833 -52 62.5s-41.5 29.834 -61.5 39.501s-43 19.167 -69 28.5c-23.333 9.33301 -35 15.333 -35 18c0 4 9.33301 10 28 18c14.667 6.66699 27.667 13.334 39 20.001s22.833 15.5 34.5 26.5
s21.167 24.833 28.5 41.5s11 36.334 11 59.001c0 38 -15.167 68.5 -45.5 91.5s-68.5 34.5 -114.5 34.5c-26.667 0 -51.5 -4.33301 -74.5 -13s-42.833 -21.334 -59.5 -38.001c-35.333 -34 -53 -76.333 -53 -127v-102h-60v-40z" />
    <glyph glyph-name="agrave" unicode="&#xe0;" 
d="M335 534l-119 138h-51l133 -138h37zM496 0l0.000976562 237c0 35.333 -5.83301 68 -17.5 98s-28.167 56.167 -49.5 78.5s-46 39.666 -74 51.999s-58 18.5 -90 18.5s-62 -6.16699 -90 -18.5s-52.667 -29.5 -74 -51.5s-37.833 -48.167 -49.5 -78.5
s-17.5 -63.166 -17.5 -98.499c0 -34.667 5.83301 -67.167 17.5 -97.5s28.167 -56.666 49.5 -78.999s46 -39.666 74 -51.999s58 -18.5 90 -18.5s59.333 5.66699 82 17s44.667 25.666 66 42.999v45c-21.333 -22.667 -43.833 -39.834 -67.5 -51.501s-50.5 -17.5 -80.5 -17.5
c-24 0 -47.5 5.33301 -70.5 16s-43.5 25.5 -61.5 44.5s-32.333 41.5 -43 67.5s-16 53.667 -16 83s5.33301 57 16 83s25 48.667 43 68s38.5 34.166 61.5 44.499s46.5 15.5 70.5 15.5c28 0 53.833 -5.66699 77.5 -17s44.167 -27 61.5 -47s30.666 -42.667 39.999 -68
s14 -51.666 14 -78.999v-237h38z" />
    <glyph glyph-name="aacute" unicode="&#xe1;" 
d="M258 534l133 138h-51l-119 -138h37zM496 0l0.000976562 237c0 35.333 -5.83301 68 -17.5 98s-28.167 56.167 -49.5 78.5s-46 39.666 -74 51.999s-58 18.5 -90 18.5s-62 -6.16699 -90 -18.5s-52.667 -29.5 -74 -51.5s-37.833 -48.167 -49.5 -78.5
s-17.5 -63.166 -17.5 -98.499c0 -34.667 5.83301 -67.167 17.5 -97.5s28.167 -56.666 49.5 -78.999s46 -39.666 74 -51.999s58 -18.5 90 -18.5s59.333 5.66699 82 17s44.667 25.666 66 42.999v45c-21.333 -22.667 -43.833 -39.834 -67.5 -51.501s-50.5 -17.5 -80.5 -17.5
c-24 0 -47.5 5.33301 -70.5 16s-43.5 25.5 -61.5 44.5s-32.333 41.5 -43 67.5s-16 53.667 -16 83s5.33301 57 16 83s25 48.667 43 68s38.5 34.166 61.5 44.499s46.5 15.5 70.5 15.5c28 0 53.833 -5.66699 77.5 -17s44.167 -27 61.5 -47s30.666 -42.667 39.999 -68
s14 -51.666 14 -78.999v-237h38z" />
    <glyph glyph-name="acircumflex" unicode="&#xe2;" 
d="M304 672h-54l-107 -138h40l94 114l94 -114h42zM496 0l0.000976562 237c0 35.333 -5.83301 68 -17.5 98s-28.167 56.167 -49.5 78.5s-46 39.666 -74 51.999s-58 18.5 -90 18.5s-62 -6.16699 -90 -18.5s-52.667 -29.5 -74 -51.5s-37.833 -48.167 -49.5 -78.5
s-17.5 -63.166 -17.5 -98.499c0 -34.667 5.83301 -67.167 17.5 -97.5s28.167 -56.666 49.5 -78.999s46 -39.666 74 -51.999s58 -18.5 90 -18.5s59.333 5.66699 82 17s44.667 25.666 66 42.999v45c-21.333 -22.667 -43.833 -39.834 -67.5 -51.501s-50.5 -17.5 -80.5 -17.5
c-24 0 -47.5 5.33301 -70.5 16s-43.5 25.5 -61.5 44.5s-32.333 41.5 -43 67.5s-16 53.667 -16 83s5.33301 57 16 83s25 48.667 43 68s38.5 34.166 61.5 44.499s46.5 15.5 70.5 15.5c28 0 53.833 -5.66699 77.5 -17s44.167 -27 61.5 -47s30.666 -42.667 39.999 -68
s14 -51.666 14 -78.999v-237h38z" />
    <glyph glyph-name="atilde" unicode="&#xe3;" 
d="M162 549c2.66699 16.667 7.83301 29.834 15.5 39.501s19.167 14.5 34.5 14.5c6.66699 0 14.5 -2 23.5 -6s20.833 -10.333 35.5 -19c16.667 -9.33301 30.667 -16.5 42 -21.5s22 -7.5 32 -7.5c22 0 39.667 8.66699 53 26s22 38 26 62h-30
c-2.66699 -16.667 -7.66699 -29.834 -15 -39.501s-19 -14.5 -35 -14.5c-6.66699 0 -14.5 2 -23.5 6s-20.833 10.333 -35.5 19c-16.667 9.33301 -30.667 16.5 -42 21.5s-22 7.5 -32 7.5c-22 0 -39.667 -8.66699 -53 -26s-22 -38 -26 -62h30zM495.999 0l0.000976562 237
c0 35.333 -5.83301 68 -17.5 98s-28.167 56.167 -49.5 78.5s-46 39.666 -74 51.999s-58 18.5 -90 18.5s-62 -6.16699 -90 -18.5s-52.667 -29.5 -74 -51.5s-37.833 -48.167 -49.5 -78.5s-17.5 -63.166 -17.5 -98.499c0 -34.667 5.83301 -67.167 17.5 -97.5
s28.167 -56.666 49.5 -78.999s46 -39.666 74 -51.999s58 -18.5 90 -18.5s59.333 5.66699 82 17s44.667 25.666 66 42.999v45c-21.333 -22.667 -43.833 -39.834 -67.5 -51.501s-50.5 -17.5 -80.5 -17.5c-24 0 -47.5 5.33301 -70.5 16s-43.5 25.5 -61.5 44.5
s-32.333 41.5 -43 67.5s-16 53.667 -16 83s5.33301 57 16 83s25 48.667 43 68s38.5 34.166 61.5 44.499s46.5 15.5 70.5 15.5c28 0 53.833 -5.66699 77.5 -17s44.167 -27 61.5 -47s30.666 -42.667 39.999 -68s14 -51.666 14 -78.999v-237h38z" />
    <glyph glyph-name="adieresis" unicode="&#xe4;" 
d="M165 592c0 -9.33301 3.33301 -17.333 10 -24s14.667 -10 24 -10s17.333 3.33301 24 10s10 14.667 10 24s-3.33301 17.333 -10 24s-14.667 10 -24 10s-17.333 -3.33301 -24 -10s-10 -14.667 -10 -24zM323 592c0 -9.33301 3.33301 -17.333 10 -24s14.667 -10 24 -10
s17.333 3.33301 24 10s10 14.667 10 24s-3.33301 17.333 -10 24s-14.667 10 -24 10s-17.333 -3.33301 -24 -10s-10 -14.667 -10 -24zM496 0l0.000976562 237c0 35.333 -5.83301 68 -17.5 98s-28.167 56.167 -49.5 78.5s-46 39.666 -74 51.999s-58 18.5 -90 18.5
s-62 -6.16699 -90 -18.5s-52.667 -29.5 -74 -51.5s-37.833 -48.167 -49.5 -78.5s-17.5 -63.166 -17.5 -98.499c0 -34.667 5.83301 -67.167 17.5 -97.5s28.167 -56.666 49.5 -78.999s46 -39.666 74 -51.999s58 -18.5 90 -18.5s59.333 5.66699 82 17s44.667 25.666 66 42.999
v45c-21.333 -22.667 -43.833 -39.834 -67.5 -51.501s-50.5 -17.5 -80.5 -17.5c-24 0 -47.5 5.33301 -70.5 16s-43.5 25.5 -61.5 44.5s-32.333 41.5 -43 67.5s-16 53.667 -16 83s5.33301 57 16 83s25 48.667 43 68s38.5 34.166 61.5 44.499s46.5 15.5 70.5 15.5
c28 0 53.833 -5.66699 77.5 -17s44.167 -27 61.5 -47s30.666 -42.667 39.999 -68s14 -51.666 14 -78.999v-237h38z" />
    <glyph glyph-name="aring" unicode="&#xe5;" 
d="M209 631c0 19.333 6.66699 35.666 20 48.999s29.666 20 48.999 20s35.666 -6.66699 48.999 -20s20 -29.666 20 -48.999s-6.66699 -35.666 -20 -48.999s-29.666 -20 -48.999 -20s-35.666 6.66699 -48.999 20s-20 29.666 -20 48.999zM181 631
c0 -27.333 9.33301 -50.333 28 -69s41.667 -28 69 -28s50.333 9.33301 69 28s28 41.667 28 69s-9.33301 50.333 -28 69s-41.667 28 -69 28s-50.333 -9.33301 -69 -28s-28 -41.667 -28 -69zM496 0l0.000976562 237c0 35.333 -5.83301 68 -17.5 98s-28.167 56.167 -49.5 78.5
s-46 39.666 -74 51.999s-58 18.5 -90 18.5s-62 -6.16699 -90 -18.5s-52.667 -29.5 -74 -51.5s-37.833 -48.167 -49.5 -78.5s-17.5 -63.166 -17.5 -98.499c0 -34.667 5.83301 -67.167 17.5 -97.5s28.167 -56.666 49.5 -78.999s46 -39.666 74 -51.999s58 -18.5 90 -18.5
s59.333 5.66699 82 17s44.667 25.666 66 42.999v45c-21.333 -22.667 -43.833 -39.834 -67.5 -51.501s-50.5 -17.5 -80.5 -17.5c-24 0 -47.5 5.33301 -70.5 16s-43.5 25.5 -61.5 44.5s-32.333 41.5 -43 67.5s-16 53.667 -16 83s5.33301 57 16 83s25 48.667 43 68
s38.5 34.166 61.5 44.499s46.5 15.5 70.5 15.5c28 0 53.833 -5.66699 77.5 -17s44.167 -27 61.5 -47s30.666 -42.667 39.999 -68s14 -51.666 14 -78.999v-237h38z" />
    <glyph glyph-name="ae" unicode="&#xe6;" horiz-adv-x="944" 
d="M84 408c27.333 12.667 52.3291 22.5078 74.9961 29.5078s45.334 10.5 68.001 10.5c37.333 0 71 -7.33301 101 -22s53 -39 69 -73c-2 -0.666992 -12.667 -3.33398 -32 -8.00098c-41.333 -11.333 -78.833 -22.333 -112.5 -33s-67.167 -24.334 -100.5 -41.001
s-60.833 -36.834 -82.5 -60.501s-32.5 -50.5 -32.5 -80.5c0 -25.333 5.33301 -47 16 -65s25 -32.5 43 -43.5s38.167 -19 60.5 -24s45.833 -7.5 70.5 -7.5c52 0 97 11.667 135 35s66.667 58.666 86 105.999c17.333 -40.667 45.5 -74.334 84.5 -101.001s80.167 -40 123.5 -40
c64 0 118 15.667 162 47s73.667 79.666 89 144.999l-40 7c-4 -22.667 -11.667 -44 -23 -64s-25.666 -37.333 -42.999 -52c-36 -31.333 -77.333 -47 -124 -47c-31.333 0 -60.166 5.66699 -86.499 17s-48.833 27 -67.5 47s-33 43.5 -43 70.5s-15 56.167 -15 87.5
c0 25.333 5.5 50.166 16.5 74.499s26.167 46 45.5 65s41 33.833 65 44.5s48.333 16 73 16c60 0 111.333 -27 154 -81l-318 -137l14 -34l366 157c-20.667 38.667 -50 70.167 -88 94.5s-78.667 36.5 -122 36.5c-46.667 0 -90.5 -12 -131.5 -36s-70.833 -59.667 -89.5 -107
c-19.333 50 -48.166 86.333 -86.499 109s-81.833 34 -130.5 34c-30 0 -59.667 -4.33301 -89 -13s-56 -19.334 -80 -32.001zM413.996 318.008c0.666992 -2.66699 1.66699 -9.00098 3 -19.001c5.33301 -24.667 8 -47 8 -67c0 -57.333 -17.833 -106 -53.5 -146
s-85.834 -60 -150.501 -60c-14.667 0 -30.5 2 -47.5 6s-32.833 10.167 -47.5 18.5s-26.5 18.833 -35.5 31.5s-13.5 27 -13.5 43c0 24.667 9.5 46.834 28.5 66.501s43.333 36.5 73 50.5s58.834 25.5 87.501 34.5s64.667 19.167 108 30.5z" />
    <glyph glyph-name="ccedilla" unicode="&#xe7;" horiz-adv-x="389" 
d="M145 -171c13.333 -6 27.667 -10.834 43 -14.501s30 -5.5 44 -5.5c27.333 0 52.166 6 74.499 18s33.5 30.667 33.5 56c0 20.667 -7.16699 37.5 -21.5 50.5s-32.166 19.5 -53.499 19.5c-6.66699 0 -13.667 -0.666992 -21 -2s-13 -3.33301 -17 -6l-2 2l48 56h-34l-56 -75
l16 -13c5.33301 2.66699 12.5 5.33398 21.5 8.00098s16.167 4 21.5 4c16.667 0 30.5 -3.5 41.5 -10.5s16.5 -18.5 16.5 -34.5c0 -14.667 -6.5 -26.167 -19.5 -34.5s-27.833 -12.5 -44.5 -12.5c-28 0 -54 6 -78 18zM351.001 483.999l-71 0.00195312
c-34 0 -65.833 -5.83301 -95.5 -17.5s-55.5 -28.167 -77.5 -49.5s-39 -47 -51 -77s-18 -62.667 -18 -98s6 -67.833 18 -97.5s29 -55.334 51 -77.001s47.833 -38.334 77.5 -50.001s61.5 -17.5 95.5 -17.5h71v40h-69c-60.667 0 -109.834 18.667 -147.501 56
s-56.5 86 -56.5 146s18.833 108.667 56.5 146s86.834 56 147.501 56h69v40z" />
    <glyph glyph-name="egrave" unicode="&#xe8;" 
d="M335 534l-119 138h-51l133 -138h37zM156 138l339.002 230.003c-22 35.333 -51.5 63.5 -88.5 84.5s-77.833 31.5 -122.5 31.5c-35.333 0 -68.333 -6.5 -99 -19.5s-56.834 -31 -78.501 -54s-38.5 -49.5 -50.5 -79.5s-18 -61.667 -18 -95c0 -34.667 6.16699 -67 18.5 -97
s30 -56.167 53 -78.5s50.167 -39.666 81.5 -51.999s65 -18.5 101 -18.5c32.667 0 63.5 6.33301 92.5 19s54.5 30 76.5 52s39.167 47.333 51.5 76s18.833 58.667 19.5 90h-40c-0.666992 -26.667 -6.33398 -52.167 -17.001 -76.5s-25.5 -45.833 -44.5 -64.5
s-41.167 -33.334 -66.5 -44.001s-52 -16 -80 -16c-28.667 0 -55.667 5.5 -81 16.5s-47.333 26.167 -66 45.5s-33.167 41.666 -43.5 66.999s-15.5 51.666 -15.5 78.999c0 28 5 55 15 81s24.333 49 43 69s40.667 35.667 66 47s52.666 17 81.999 17
c30.667 0 59.334 -6.33301 86.001 -19s49 -30.334 67 -53.001l-305 -206z" />
    <glyph glyph-name="eacute" unicode="&#xe9;" 
d="M258 534l133 138h-51l-119 -138h37zM156 138l339.002 230.003c-22 35.333 -51.5 63.5 -88.5 84.5s-77.833 31.5 -122.5 31.5c-35.333 0 -68.333 -6.5 -99 -19.5s-56.834 -31 -78.501 -54s-38.5 -49.5 -50.5 -79.5s-18 -61.667 -18 -95c0 -34.667 6.16699 -67 18.5 -97
s30 -56.167 53 -78.5s50.167 -39.666 81.5 -51.999s65 -18.5 101 -18.5c32.667 0 63.5 6.33301 92.5 19s54.5 30 76.5 52s39.167 47.333 51.5 76s18.833 58.667 19.5 90h-40c-0.666992 -26.667 -6.33398 -52.167 -17.001 -76.5s-25.5 -45.833 -44.5 -64.5
s-41.167 -33.334 -66.5 -44.001s-52 -16 -80 -16c-28.667 0 -55.667 5.5 -81 16.5s-47.333 26.167 -66 45.5s-33.167 41.666 -43.5 66.999s-15.5 51.666 -15.5 78.999c0 28 5 55 15 81s24.333 49 43 69s40.667 35.667 66 47s52.666 17 81.999 17
c30.667 0 59.334 -6.33301 86.001 -19s49 -30.334 67 -53.001l-305 -206z" />
    <glyph glyph-name="ecircumflex" unicode="&#xea;" 
d="M304 672h-54l-107 -138h40l94 114l94 -114h42zM156 138l339.002 230.003c-22 35.333 -51.5 63.5 -88.5 84.5s-77.833 31.5 -122.5 31.5c-35.333 0 -68.333 -6.5 -99 -19.5s-56.834 -31 -78.501 -54s-38.5 -49.5 -50.5 -79.5s-18 -61.667 -18 -95
c0 -34.667 6.16699 -67 18.5 -97s30 -56.167 53 -78.5s50.167 -39.666 81.5 -51.999s65 -18.5 101 -18.5c32.667 0 63.5 6.33301 92.5 19s54.5 30 76.5 52s39.167 47.333 51.5 76s18.833 58.667 19.5 90h-40c-0.666992 -26.667 -6.33398 -52.167 -17.001 -76.5
s-25.5 -45.833 -44.5 -64.5s-41.167 -33.334 -66.5 -44.001s-52 -16 -80 -16c-28.667 0 -55.667 5.5 -81 16.5s-47.333 26.167 -66 45.5s-33.167 41.666 -43.5 66.999s-15.5 51.666 -15.5 78.999c0 28 5 55 15 81s24.333 49 43 69s40.667 35.667 66 47s52.666 17 81.999 17
c30.667 0 59.334 -6.33301 86.001 -19s49 -30.334 67 -53.001l-305 -206z" />
    <glyph glyph-name="edieresis" unicode="&#xeb;" 
d="M165 592c0 -9.33301 3.33301 -17.333 10 -24s14.667 -10 24 -10s17.333 3.33301 24 10s10 14.667 10 24s-3.33301 17.333 -10 24s-14.667 10 -24 10s-17.333 -3.33301 -24 -10s-10 -14.667 -10 -24zM323 592c0 -9.33301 3.33301 -17.333 10 -24s14.667 -10 24 -10
s17.333 3.33301 24 10s10 14.667 10 24s-3.33301 17.333 -10 24s-14.667 10 -24 10s-17.333 -3.33301 -24 -10s-10 -14.667 -10 -24zM156 138l339.002 230.003c-22 35.333 -51.5 63.5 -88.5 84.5s-77.833 31.5 -122.5 31.5c-35.333 0 -68.333 -6.5 -99 -19.5
s-56.834 -31 -78.501 -54s-38.5 -49.5 -50.5 -79.5s-18 -61.667 -18 -95c0 -34.667 6.16699 -67 18.5 -97s30 -56.167 53 -78.5s50.167 -39.666 81.5 -51.999s65 -18.5 101 -18.5c32.667 0 63.5 6.33301 92.5 19s54.5 30 76.5 52s39.167 47.333 51.5 76
s18.833 58.667 19.5 90h-40c-0.666992 -26.667 -6.33398 -52.167 -17.001 -76.5s-25.5 -45.833 -44.5 -64.5s-41.167 -33.334 -66.5 -44.001s-52 -16 -80 -16c-28.667 0 -55.667 5.5 -81 16.5s-47.333 26.167 -66 45.5s-33.167 41.666 -43.5 66.999
s-15.5 51.666 -15.5 78.999c0 28 5 55 15 81s24.333 49 43 69s40.667 35.667 66 47s52.666 17 81.999 17c30.667 0 59.334 -6.33301 86.001 -19s49 -30.334 67 -53.001l-305 -206z" />
    <glyph glyph-name="igrave" unicode="&#xec;" horiz-adv-x="222" 
d="M168 534l-119 138h-51l133 -138h37zM130 0v474h-38v-474h38z" />
    <glyph glyph-name="iacute" unicode="&#xed;" horiz-adv-x="222" 
d="M91 534l133 138h-51l-119 -138h37zM130 0v474h-38v-474h38z" />
    <glyph glyph-name="icircumflex" unicode="&#xee;" horiz-adv-x="222" 
d="M137 672h-54l-107 -138h40l94 114l94 -114h42zM130 0v474h-38v-474h38z" />
    <glyph glyph-name="idieresis" unicode="&#xef;" horiz-adv-x="222" 
d="M-2 592c0 -9.33301 3.33301 -17.333 10 -24s14.667 -10 24 -10s17.333 3.33301 24 10s10 14.667 10 24s-3.33301 17.333 -10 24s-14.667 10 -24 10s-17.333 -3.33301 -24 -10s-10 -14.667 -10 -24zM156 592c0 -9.33301 3.33301 -17.333 10 -24s14.667 -10 24 -10
s17.333 3.33301 24 10s10 14.667 10 24s-3.33301 17.333 -10 24s-14.667 10 -24 10s-17.333 -3.33301 -24 -10s-10 -14.667 -10 -24zM130 0v474h-38v-474h38z" />
    <glyph glyph-name="eth" unicode="&#xf0;" 
d="M116 686c44.667 -22 84.334 -44.9961 119.001 -68.9961l-99 -73l19 -26l108 79c64 -46 115.833 -98.667 155.5 -158s59.5 -122.333 59.5 -189c0 -32 -5 -61.833 -15 -89.5s-24.167 -51.5 -42.5 -71.5s-39.666 -35.5 -63.999 -46.5s-50.833 -16.5 -79.5 -16.5
c-28 0 -54.333 5.5 -79 16.5s-45.834 26.167 -63.501 45.5s-31.5 41.5 -41.5 66.5s-15 51.5 -15 79.5s4.83301 55 14.5 81s23.334 49 41.001 69s38.834 35.667 63.501 47s51.334 17 80.001 17c45.333 0 83.666 -12.667 114.999 -38v2l-44 61
c-16.667 7.33301 -40.334 11 -71.001 11c-33.333 0 -64.666 -6.5 -93.999 -19.5s-54.833 -31 -76.5 -54s-38.5 -49.5 -50.5 -79.5s-18 -61.667 -18 -95c0 -34 6 -66 18 -96s28.833 -56.333 50.5 -79s47.167 -40.167 76.5 -52.5s60.666 -18.5 93.999 -18.5
c34 0 65.667 6.16699 95 18.5s55 30.166 77 53.499s39 51.666 51 84.999s18 70.333 18 111c0 36.667 -5.83301 72.167 -17.5 106.5s-27.834 66.666 -48.501 96.999s-44.334 58.666 -71.001 84.999s-55.667 50.833 -87 73.5l89 66l-19 26l-98 -72
c-40 27.333 -82.667 51.333 -128 72z" />
    <glyph glyph-name="ntilde" unicode="&#xf1;" horiz-adv-x="500" 
d="M134 549c2.66699 16.667 7.83301 29.834 15.5 39.501s19.167 14.5 34.5 14.5c6.66699 0 14.5 -2 23.5 -6s20.833 -10.333 35.5 -19c16.667 -9.33301 30.667 -16.5 42 -21.5s22 -7.5 32 -7.5c22 0 39.667 8.66699 53 26s22 38 26 62h-30
c-2.66699 -16.667 -7.66699 -29.834 -15 -39.501s-19 -14.5 -35 -14.5c-6.66699 0 -14.5 2 -23.5 6s-20.833 10.333 -35.5 19c-16.667 9.33301 -30.667 16.5 -42 21.5s-22 7.5 -32 7.5c-22 0 -39.667 -8.66699 -53 -26s-22 -38 -26 -62h30zM439.999 0l-0.00195312 289
c0 28.667 -4.83301 55 -14.5 79s-23.167 44.667 -40.5 62s-37.666 30.666 -60.999 39.999s-48 14 -74 14s-50.667 -4.66699 -74 -14s-43.666 -22.666 -60.999 -39.999s-30.833 -38 -40.5 -62s-14.5 -50.333 -14.5 -79v-289h38v284c0 48.667 14.667 88.167 44 118.5
s65.333 45.5 108 45.5s78.667 -15.167 108 -45.5s44 -69.833 44 -118.5v-284h38z" />
    <glyph glyph-name="ograve" unicode="&#xf2;" 
d="M335 534l-119 138h-51l133 -138h37zM278 448c28 0 54.333 -5.66699 79 -17s46.167 -27 64.5 -47s32.333 -42.667 42 -68s14.5 -51.666 14.5 -78.999s-5 -53.666 -15 -78.999s-24 -48 -42 -68s-39.333 -35.667 -64 -47s-51 -17 -79 -17s-54.333 5.66699 -79 17
s-46 27 -64 47s-32 42.667 -42 68s-15 51.666 -15 78.999s5 53.666 15 78.999s24 48 42 68s39.333 35.667 64 47s51 17 79 17zM278 484c-33.333 0 -64.666 -6.5 -93.999 -19.5s-55 -30.833 -77 -53.5s-39 -49 -51 -79s-18 -61.667 -18 -95s6 -65 18 -95s29 -56.333 51 -79
s47.667 -40.5 77 -53.5s60.666 -19.5 93.999 -19.5s64.666 6.5 93.999 19.5s55 30.833 77 53.5s39 49 51 79s18 61.667 18 95s-6 65 -18 95s-29 56.333 -51 79s-47.667 40.5 -77 53.5s-60.666 19.5 -93.999 19.5z" />
    <glyph glyph-name="oacute" unicode="&#xf3;" 
d="M258 534l133 138h-51l-119 -138h37zM278 448c28 0 54.333 -5.66699 79 -17s46.167 -27 64.5 -47s32.333 -42.667 42 -68s14.5 -51.666 14.5 -78.999s-5 -53.666 -15 -78.999s-24 -48 -42 -68s-39.333 -35.667 -64 -47s-51 -17 -79 -17s-54.333 5.66699 -79 17
s-46 27 -64 47s-32 42.667 -42 68s-15 51.666 -15 78.999s5 53.666 15 78.999s24 48 42 68s39.333 35.667 64 47s51 17 79 17zM278 484c-33.333 0 -64.666 -6.5 -93.999 -19.5s-55 -30.833 -77 -53.5s-39 -49 -51 -79s-18 -61.667 -18 -95s6 -65 18 -95s29 -56.333 51 -79
s47.667 -40.5 77 -53.5s60.666 -19.5 93.999 -19.5s64.666 6.5 93.999 19.5s55 30.833 77 53.5s39 49 51 79s18 61.667 18 95s-6 65 -18 95s-29 56.333 -51 79s-47.667 40.5 -77 53.5s-60.666 19.5 -93.999 19.5z" />
    <glyph glyph-name="ocircumflex" unicode="&#xf4;" 
d="M304 672h-54l-107 -138h40l94 114l94 -114h42zM278 448c28 0 54.333 -5.66699 79 -17s46.167 -27 64.5 -47s32.333 -42.667 42 -68s14.5 -51.666 14.5 -78.999s-5 -53.666 -15 -78.999s-24 -48 -42 -68s-39.333 -35.667 -64 -47s-51 -17 -79 -17s-54.333 5.66699 -79 17
s-46 27 -64 47s-32 42.667 -42 68s-15 51.666 -15 78.999s5 53.666 15 78.999s24 48 42 68s39.333 35.667 64 47s51 17 79 17zM278 484c-33.333 0 -64.666 -6.5 -93.999 -19.5s-55 -30.833 -77 -53.5s-39 -49 -51 -79s-18 -61.667 -18 -95s6 -65 18 -95s29 -56.333 51 -79
s47.667 -40.5 77 -53.5s60.666 -19.5 93.999 -19.5s64.666 6.5 93.999 19.5s55 30.833 77 53.5s39 49 51 79s18 61.667 18 95s-6 65 -18 95s-29 56.333 -51 79s-47.667 40.5 -77 53.5s-60.666 19.5 -93.999 19.5z" />
    <glyph glyph-name="otilde" unicode="&#xf5;" 
d="M162 549c2.66699 16.667 7.83301 29.834 15.5 39.501s19.167 14.5 34.5 14.5c6.66699 0 14.5 -2 23.5 -6s20.833 -10.333 35.5 -19c16.667 -9.33301 30.667 -16.5 42 -21.5s22 -7.5 32 -7.5c22 0 39.667 8.66699 53 26s22 38 26 62h-30
c-2.66699 -16.667 -7.66699 -29.834 -15 -39.501s-19 -14.5 -35 -14.5c-6.66699 0 -14.5 2 -23.5 6s-20.833 10.333 -35.5 19c-16.667 9.33301 -30.667 16.5 -42 21.5s-22 7.5 -32 7.5c-22 0 -39.667 -8.66699 -53 -26s-22 -38 -26 -62h30zM277.999 448
c28 0 54.333 -5.66699 79 -17s46.167 -27 64.5 -47s32.333 -42.667 42 -68s14.5 -51.666 14.5 -78.999s-5 -53.666 -15 -78.999s-24 -48 -42 -68s-39.333 -35.667 -64 -47s-51 -17 -79 -17s-54.333 5.66699 -79 17s-46 27 -64 47s-32 42.667 -42 68s-15 51.666 -15 78.999
s5 53.666 15 78.999s24 48 42 68s39.333 35.667 64 47s51 17 79 17zM277.999 484c-33.333 0 -64.666 -6.5 -93.999 -19.5s-55 -30.833 -77 -53.5s-39 -49 -51 -79s-18 -61.667 -18 -95s6 -65 18 -95s29 -56.333 51 -79s47.667 -40.5 77 -53.5s60.666 -19.5 93.999 -19.5
s64.666 6.5 93.999 19.5s55 30.833 77 53.5s39 49 51 79s18 61.667 18 95s-6 65 -18 95s-29 56.333 -51 79s-47.667 40.5 -77 53.5s-60.666 19.5 -93.999 19.5z" />
    <glyph glyph-name="odieresis" unicode="&#xf6;" 
d="M165 592c0 -9.33301 3.33301 -17.333 10 -24s14.667 -10 24 -10s17.333 3.33301 24 10s10 14.667 10 24s-3.33301 17.333 -10 24s-14.667 10 -24 10s-17.333 -3.33301 -24 -10s-10 -14.667 -10 -24zM323 592c0 -9.33301 3.33301 -17.333 10 -24s14.667 -10 24 -10
s17.333 3.33301 24 10s10 14.667 10 24s-3.33301 17.333 -10 24s-14.667 10 -24 10s-17.333 -3.33301 -24 -10s-10 -14.667 -10 -24zM278 448c28 0 54.333 -5.66699 79 -17s46.167 -27 64.5 -47s32.333 -42.667 42 -68s14.5 -51.666 14.5 -78.999s-5 -53.666 -15 -78.999
s-24 -48 -42 -68s-39.333 -35.667 -64 -47s-51 -17 -79 -17s-54.333 5.66699 -79 17s-46 27 -64 47s-32 42.667 -42 68s-15 51.666 -15 78.999s5 53.666 15 78.999s24 48 42 68s39.333 35.667 64 47s51 17 79 17zM278 484c-33.333 0 -64.666 -6.5 -93.999 -19.5
s-55 -30.833 -77 -53.5s-39 -49 -51 -79s-18 -61.667 -18 -95s6 -65 18 -95s29 -56.333 51 -79s47.667 -40.5 77 -53.5s60.666 -19.5 93.999 -19.5s64.666 6.5 93.999 19.5s55 30.833 77 53.5s39 49 51 79s18 61.667 18 95s-6 65 -18 95s-29 56.333 -51 79
s-47.667 40.5 -77 53.5s-60.666 19.5 -93.999 19.5z" />
    <glyph glyph-name="divide" unicode="&#xf7;" horiz-adv-x="600" 
d="M536 217v40h-472v-40h472zM248 430c0 -14.667 5 -27 15 -37s22.333 -15 37 -15s27 5 37 15s15 22.333 15 37s-5 27 -15 37s-22.333 15 -37 15s-27 -5 -37 -15s-15 -22.333 -15 -37zM248 44c0 -14.667 5 -27 15 -37s22.333 -15 37 -15s27 5 37 15s15 22.333 15 37
s-5 27 -15 37s-22.333 15 -37 15s-27 -5 -37 -15s-15 -22.333 -15 -37z" />
    <glyph glyph-name="oslash" unicode="&#xf8;" 
d="M124 105c-30.667 38 -45.999 82.001 -45.999 132.001c0 27.333 5 53.666 15 78.999s24 48 42 68s39.333 35.667 64 47s51 17 79 17c24.667 0 48.167 -4.5 70.5 -13.5s42.166 -21.833 59.499 -38.5zM504.001 494.001l-69 -71.001c-21.333 19.333 -45.333 34.333 -72 45
s-55 16 -85 16c-33.333 0 -64.666 -6.5 -93.999 -19.5s-55 -30.833 -77 -53.5s-39 -49 -51 -79s-18 -61.667 -18 -95c0 -30 5 -58.833 15 -86.5s24.333 -52.167 43 -73.5l-94 -97h48l70 72c20.667 -20 44.5 -35.333 71.5 -46s55.833 -16 86.5 -16
c33.333 0 64.666 6.5 93.999 19.5s55 30.833 77 53.5s39 49 51 79s18 61.667 18 95c0 30.667 -5.16699 59.834 -15.5 87.501s-24.833 52.167 -43.5 73.5l95 96h-50zM432.001 370c14.667 -18.667 26 -39.333 34 -62s12 -46.334 12 -71.001c0 -27.333 -5 -53.666 -15 -78.999
s-24 -48 -42 -68s-39.333 -35.667 -64 -47s-51 -17 -79 -17c-26 0 -50.167 4.66699 -72.5 14s-41.833 22.333 -58.5 39z" />
    <glyph glyph-name="ugrave" unicode="&#xf9;" horiz-adv-x="500" 
d="M307 534l-119 138h-51l133 -138h37zM60 474l0.00195312 -289c0 -28.667 4.83301 -55 14.5 -79s23.167 -44.667 40.5 -62s37.666 -30.666 60.999 -39.999s48 -14 74 -14s50.667 4.66699 74 14s43.666 22.666 60.999 39.999s30.833 38 40.5 62s14.5 50.333 14.5 79v289h-38
v-284c0 -48.667 -14.667 -88.167 -44 -118.5s-65.333 -45.5 -108 -45.5s-78.667 15.167 -108 45.5s-44 69.833 -44 118.5v284h-38z" />
    <glyph glyph-name="uacute" unicode="&#xfa;" horiz-adv-x="500" 
d="M230 534l133 138h-51l-119 -138h37zM60 474l0.00195312 -289c0 -28.667 4.83301 -55 14.5 -79s23.167 -44.667 40.5 -62s37.666 -30.666 60.999 -39.999s48 -14 74 -14s50.667 4.66699 74 14s43.666 22.666 60.999 39.999s30.833 38 40.5 62s14.5 50.333 14.5 79v289h-38
v-284c0 -48.667 -14.667 -88.167 -44 -118.5s-65.333 -45.5 -108 -45.5s-78.667 15.167 -108 45.5s-44 69.833 -44 118.5v284h-38z" />
    <glyph glyph-name="ucircumflex" unicode="&#xfb;" horiz-adv-x="500" 
d="M276 672h-54l-107 -138h40l94 114l94 -114h42zM60 474l0.00195312 -289c0 -28.667 4.83301 -55 14.5 -79s23.167 -44.667 40.5 -62s37.666 -30.666 60.999 -39.999s48 -14 74 -14s50.667 4.66699 74 14s43.666 22.666 60.999 39.999s30.833 38 40.5 62
s14.5 50.333 14.5 79v289h-38v-284c0 -48.667 -14.667 -88.167 -44 -118.5s-65.333 -45.5 -108 -45.5s-78.667 15.167 -108 45.5s-44 69.833 -44 118.5v284h-38z" />
    <glyph glyph-name="udieresis" unicode="&#xfc;" horiz-adv-x="500" 
d="M137 592c0 -9.33301 3.33301 -17.333 10 -24s14.667 -10 24 -10s17.333 3.33301 24 10s10 14.667 10 24s-3.33301 17.333 -10 24s-14.667 10 -24 10s-17.333 -3.33301 -24 -10s-10 -14.667 -10 -24zM295 592c0 -9.33301 3.33301 -17.333 10 -24s14.667 -10 24 -10
s17.333 3.33301 24 10s10 14.667 10 24s-3.33301 17.333 -10 24s-14.667 10 -24 10s-17.333 -3.33301 -24 -10s-10 -14.667 -10 -24zM60 474l0.00195312 -289c0 -28.667 4.83301 -55 14.5 -79s23.167 -44.667 40.5 -62s37.666 -30.666 60.999 -39.999s48 -14 74 -14
s50.667 4.66699 74 14s43.666 22.666 60.999 39.999s30.833 38 40.5 62s14.5 50.333 14.5 79v289h-38v-284c0 -48.667 -14.667 -88.167 -44 -118.5s-65.333 -45.5 -108 -45.5s-78.667 15.167 -108 45.5s-44 69.833 -44 118.5v284h-38z" />
    <glyph glyph-name="yacute" unicode="&#xfd;" horiz-adv-x="500" 
d="M230 534l133 138h-51l-119 -138h37zM271 -216v208c48.667 4 89 23.667 121 59s48 80 48 134v289h-38v-284c0 -48.667 -14.667 -88.167 -44 -118.5s-65.333 -45.5 -108 -45.5s-78.667 15.167 -108 45.5s-44 69.833 -44 118.5v284h-38v-289c0 -54 16 -98.667 48 -134
s72.333 -55 121 -59v-208h42z" />
    <glyph glyph-name="thorn" unicode="&#xfe;" 
d="M98 -228l0.000976562 464.998c0 27.333 4.66699 53.666 14 78.999s22.666 48 39.999 68s37.833 35.667 61.5 47s49.5 17 77.5 17c24 0 47.5 -5.16699 70.5 -15.5s43.5 -25.166 61.5 -44.499s32.333 -42 43 -68s16 -53.667 16 -83s-5.33301 -57 -16 -83
s-25 -48.5 -43 -67.5s-38.5 -33.833 -61.5 -44.5s-46.5 -16 -70.5 -16c-30 0 -56.667 5.83301 -80 17.5s-46 28.834 -68 51.501v-45c21.333 -17.333 43.333 -31.666 66 -42.999s50 -17 82 -17s62.167 6.16699 90.5 18.5s53 29.5 74 51.5s37.333 48.333 49 79
s17.5 63.334 17.5 98.001c0 35.333 -5.83301 68 -17.5 98s-28.167 56.167 -49.5 78.5s-46 39.666 -74 51.999s-58 18.5 -90 18.5c-40 0 -77 -9.5 -111 -28.5s-60.667 -45.5 -80 -79.5h-2v324h-38v-928h38z" />
    <glyph glyph-name="ydieresis" unicode="&#xff;" horiz-adv-x="500" 
d="M137 592c0 -9.33301 3.33301 -17.333 10 -24s14.667 -10 24 -10s17.333 3.33301 24 10s10 14.667 10 24s-3.33301 17.333 -10 24s-14.667 10 -24 10s-17.333 -3.33301 -24 -10s-10 -14.667 -10 -24zM295 592c0 -9.33301 3.33301 -17.333 10 -24s14.667 -10 24 -10
s17.333 3.33301 24 10s10 14.667 10 24s-3.33301 17.333 -10 24s-14.667 10 -24 10s-17.333 -3.33301 -24 -10s-10 -14.667 -10 -24zM271 -216v208c48.667 4 89 23.667 121 59s48 80 48 134v289h-38v-284c0 -48.667 -14.667 -88.167 -44 -118.5s-65.333 -45.5 -108 -45.5
s-78.667 15.167 -108 45.5s-44 69.833 -44 118.5v284h-38v-289c0 -54 16 -98.667 48 -134s72.333 -55 121 -59v-208h42z" />
    <glyph glyph-name="OE" unicode="&#x152;" horiz-adv-x="1000" 
d="M344 26c-40.667 0 -78.668 8.5 -114.001 25.5s-66.166 40.5 -92.499 70.5s-46.833 64.667 -61.5 104s-22 80.666 -22 123.999s7.16699 84.666 21.5 123.999s34.833 74 61.5 104s57.667 53.5 93 70.5s73.333 25.5 114 25.5s78.5 -8.5 113.5 -25.5s65.333 -40.5 91 -70.5
s45.5 -64.667 59.5 -104s21 -80.666 21 -123.999s-7 -84.666 -21 -123.999s-33.833 -74 -59.5 -104s-56 -53.5 -91 -70.5s-72.833 -25.5 -113.5 -25.5zM986.999 378l-312.998 0.00292969c2 40 11.167 77.5 27.5 112.5s38.666 65.5 66.999 91.5s61.166 46.167 98.499 60.5
s77.333 21.5 120 21.5v36c-82.667 0 -153.167 -19.833 -211.5 -59.5s-98.833 -93.167 -121.5 -160.5h-2c-9.33301 30.667 -23.5 60 -42.5 88s-42 52.833 -69 74.5s-57.167 38.667 -90.5 51s-68.666 18.5 -105.999 18.5c-46 0 -89.167 -9.33301 -129.5 -28
s-75.666 -44.834 -105.999 -78.501s-54 -72.5 -71 -116.5s-25.5 -90.333 -25.5 -139s8.5 -95 25.5 -139s40.667 -82.833 71 -116.5s65.666 -59.834 105.999 -78.501s83.5 -28 129.5 -28c37.333 0 72.666 6.16699 105.999 18.5s63.333 29.166 90 50.499
s49.667 45.833 69 73.5s33.666 56.834 42.999 87.501h2c30.667 -76 74.334 -131.333 131.001 -166s124 -52 202 -52v36c-46 2.66699 -88 12 -126 28s-71 37.667 -99 65s-49.5 59.166 -64.5 95.499s-22.833 75.5 -23.5 117.5h313v36z" />
    <glyph glyph-name="oe" unicode="&#x153;" horiz-adv-x="1000" 
d="M78 234c0 28 4.8291 54.998 14.4961 80.998s23.334 49 41.001 69s38.834 35.667 63.501 47s51.334 17 80.001 17s55.334 -5.66699 80.001 -17s46 -27 64 -47s32 -43 42 -69s15 -53 15 -81c0 -27.333 -5.16699 -53.666 -15.5 -78.999s-24.666 -47.666 -42.999 -66.999
s-39.833 -34.5 -64.5 -45.5s-50.667 -16.5 -78 -16.5c-28 0 -54.333 5.5 -79 16.5s-45.834 26.167 -63.501 45.5s-31.5 41.5 -41.5 66.5s-15 51.5 -15 79.5zM956.996 325.998c-18 48.667 -48.5049 87.1709 -91.5049 115.504s-90.833 42.5 -143.5 42.5
c-31.333 0 -59.166 -4.16699 -83.499 -12.5s-45.5 -19.5 -63.5 -33.5s-33.167 -29.667 -45.5 -47s-23.166 -35.666 -32.499 -54.999c-18.667 44 -47.667 79.667 -87 107s-83.666 41 -132.999 41c-33.333 0 -64.666 -6.5 -93.999 -19.5s-54.833 -31 -76.5 -54
s-38.5 -49.5 -50.5 -79.5s-18 -61.667 -18 -95c0 -34 6.16699 -66 18.5 -96s29.833 -56.333 52.5 -79s49 -40.167 79 -52.5s62 -18.5 96 -18.5c48 0 91.167 13.833 129.5 41.5s66.5 63.167 84.5 106.5c8.66699 -18.667 19.167 -36.334 31.5 -53.001s28 -32.167 47 -46.5
s41.333 -25.833 67 -34.5s54.834 -13.334 87.501 -14.001c28 0 55 4.83301 81 14.5s49.667 23.167 71 40.5s39.166 37.666 53.499 60.999s24.5 48.333 30.5 75l-39 7c-10 -46 -34 -84.333 -72 -115s-81 -46.334 -129 -47.001c-30 0 -57.667 6 -83 18s-47.5 28.5 -66.5 49.5
s-33.667 44.667 -44 71s-15.5 53.5 -15.5 81.5c0 27.333 5.33301 53.166 16 77.499s25.334 46 44.001 65s40.667 33.667 66 44s52 15.5 80 15.5c38 0 72.833 -9 104.5 -27s56.167 -43.333 73.5 -76l-339 -144l18 -36z" />
    <glyph glyph-name="Scaron" unicode="&#x160;" 
d="M413 879h-42l-94 -114l-94 114h-40l107 -138h54zM473 700l-248 0.000976562c-53.333 0 -97 -13.333 -131 -40s-51 -65.667 -51 -117c0 -33.333 6.16699 -61.333 18.5 -84s28.833 -41.167 49.5 -55.5s42.667 -25.666 66 -33.999s53 -17.5 89 -27.5
c34 -9.33301 61.667 -17.833 83 -25.5s41.166 -17.5 59.499 -29.5s33 -27.5 44 -46.5s16.5 -42.167 16.5 -69.5c0 -42.667 -15.667 -75.5 -47 -98.5s-75.666 -34.5 -132.999 -34.5h-246v-38h252c69.333 0 123 15 161 45s57 74 57 132c0 33.333 -6.33301 61.5 -19 84.5
s-29.667 41.667 -51 56s-43.666 25.833 -66.999 34.5s-54.333 18.667 -93 30c-32.667 8.66699 -59.334 16.667 -80.001 24s-40 16.666 -58 27.999s-32.167 25.666 -42.5 42.999s-15.5 38 -15.5 62c0 40 11.833 70.5 35.5 91.5s63.167 31.5 118.5 31.5h232v38z" />
    <glyph glyph-name="scaron" unicode="&#x161;" horiz-adv-x="444" 
d="M357 672h-42l-94 -114l-94 114h-40l107 -138h54zM38 0h203.004c53.333 0 94.333 10.167 123 30.5s43 50.833 43 91.5c0 24 -5 44.167 -15 60.5s-23.333 29.333 -40 39s-34.334 17.167 -53.001 22.5s-43.334 11.666 -74.001 18.999
c-25.333 5.33301 -45.5 10.166 -60.5 14.499s-29.167 10 -42.5 17s-23.833 15.833 -31.5 26.5s-11.5 23.667 -11.5 39c0 24.667 8.16699 43.834 24.5 57.501s35.5 20.5 57.5 20.5h210v36h-213c-37.333 0 -66.833 -11 -88.5 -33s-32.5 -49.333 -32.5 -82
c0 -21.333 4.66699 -39.5 14 -54.5s21.833 -27 37.5 -36s32.167 -16.167 49.5 -21.5s40.666 -11.333 69.999 -18c24 -5.33301 44.833 -10.666 62.5 -15.999s33.667 -12 48 -20s25.666 -18.167 33.999 -30.5s12.5 -27.833 12.5 -46.5c0 -25.333 -9.16699 -45 -27.5 -59
s-47.5 -21 -87.5 -21h-212v-36z" />
    <glyph glyph-name="Ydieresis" unicode="&#x178;" 
d="M165 799c0 -9.33301 3.33301 -17.333 10 -24s14.667 -10 24 -10s17.333 3.33301 24 10s10 14.667 10 24s-3.33301 17.333 -10 24s-14.667 10 -24 10s-17.333 -3.33301 -24 -10s-10 -14.667 -10 -24zM323 799c0 -9.33301 3.33301 -17.333 10 -24s14.667 -10 24 -10
s17.333 3.33301 24 10s10 14.667 10 24s-3.33301 17.333 -10 24s-14.667 10 -24 10s-17.333 -3.33301 -24 -10s-10 -14.667 -10 -24zM450 700l0.00195312 -194c0 -52.667 -16 -95.167 -48 -127.5s-73.333 -48.5 -124 -48.5s-92 16.167 -124 48.5s-48 74.833 -48 127.5v194
h-42v-191c0 -32.667 5.16699 -62.5 15.5 -89.5s24.666 -50 42.999 -69s39 -33.5 62 -43.5s47.167 -15 72.5 -15v-292h42v292c25.333 0 49.5 5 72.5 15s43.667 24.5 62 43.5s32.666 42 42.999 69s15.5 56.833 15.5 89.5v191h-42z" />
    <glyph glyph-name="florin" unicode="&#x192;" 
d="M264 354l-19.002 -309.997c-4 -67.333 -18.667 -122.833 -44 -166.5s-59.333 -65.5 -102 -65.5c-27.333 0 -53.666 6.33301 -78.999 19l-10 -41c24.667 -12 53 -18 85 -18c32.667 0 60.834 7.66699 84.501 23s43.167 35.666 58.5 60.999s27 52.833 35 82.5
s13.333 59.834 16 90.501l20 325h148v40h-146l4 55c6 77.333 21.333 133.666 46 168.999s59.334 53.333 104.001 54c12.667 0 24.5 -0.833008 35.5 -2.5s22.833 -4.83398 35.5 -9.50098l11 34c-12.667 5.33301 -25.167 9.66602 -37.5 12.999s-24.166 5 -35.499 5
c-32 0 -60.167 -6 -84.5 -18s-44.333 -28 -60 -48s-27.834 -42.833 -36.501 -68.5s-14.334 -52.5 -17.001 -80.5l-10 -103h-138v-40h136z" />
    <glyph glyph-name="circumflex" unicode="&#x2c6;" horiz-adv-x="222" 
d="M137 672h-54l-107 -138h40l94 114l94 -114h42z" />
    <glyph glyph-name="tilde" unicode="&#x2dc;" horiz-adv-x="222" 
d="M-5 549c2.66699 16.667 7.83301 29.834 15.5 39.501s19.167 14.5 34.5 14.5c6.66699 0 14.5 -2 23.5 -6s20.833 -10.333 35.5 -19c16.667 -9.33301 30.667 -16.5 42 -21.5s22 -7.5 32 -7.5c22 0 39.667 8.66699 53 26s22 38 26 62h-30
c-2.66699 -16.667 -7.66699 -29.834 -15 -39.501s-19 -14.5 -35 -14.5c-6.66699 0 -14.5 2 -23.5 6s-20.833 10.333 -35.5 19c-16.667 9.33301 -30.667 16.5 -42 21.5s-22 7.5 -32 7.5c-22 0 -39.667 -8.66699 -53 -26s-22 -38 -26 -62h30z" />
    <glyph glyph-name="endash" unicode="&#x2013;" horiz-adv-x="500" 
d="M0 218h500v38h-500v-38z" />
    <glyph glyph-name="emdash" unicode="&#x2014;" horiz-adv-x="1000" 
d="M0 218h1000v38h-1000v-38z" />
    <glyph glyph-name="quoteleft" unicode="&#x2018;" horiz-adv-x="222" 
d="M146 546l-28 154h-42l34 -154h36z" />
    <glyph glyph-name="quoteright" unicode="&#x2019;" horiz-adv-x="222" 
d="M112 546l34 154h-42l-28 -154h36z" />
    <glyph glyph-name="quotesinglbase" unicode="&#x201a;" horiz-adv-x="222" 
d="M112 -82l34 154h-42l-28 -154h36z" />
    <glyph glyph-name="quotedblleft" unicode="&#x201c;" horiz-adv-x="333" 
d="M266 546l-28 154h-42l34 -154h36zM136 546l-28 154h-42l34 -154h36z" />
    <glyph glyph-name="quotedblright" unicode="&#x201d;" horiz-adv-x="333" 
d="M103 546l34 154h-42l-28 -154h36zM233 546l34 154h-42l-28 -154h36z" />
    <glyph glyph-name="quotedblbase" unicode="&#x201e;" horiz-adv-x="333" 
d="M103 -82l34 154h-42l-28 -154h36zM233 -82l34 154h-42l-28 -154h36z" />
    <glyph glyph-name="dagger" unicode="&#x2020;" horiz-adv-x="500" 
d="M88 453l151 15c0 -22 -1 -43.667 -3 -65s-4.66699 -44.666 -8 -69.999c-2.66699 -18.667 -4 -29.667 -4 -33c0 -2.66699 0.666992 -12.334 2 -29.001c4.66699 -42.667 8.5 -91.334 11.5 -146.001s4.5 -126.334 4.5 -215.001h16c0 88.667 1.66699 161.334 5 218.001
s7 104.334 11 143.001c1.33301 16.667 2 26.334 2 29.001c0 3.33301 -1.33301 14.333 -4 33c-3.33301 25.333 -6 48.666 -8 69.999s-3 43 -3 65l151 -15v54l-151 -13l15 206h-53l15 -206l-150 13v-54z" />
    <glyph glyph-name="daggerdbl" unicode="&#x2021;" horiz-adv-x="500" 
d="M412 97v53.999l-151 -15c0 22.667 1.16699 45 3.5 67s5.16602 45 8.49902 69c2 16.667 3 26.667 3 30s-1 13.333 -3 30c-3.33301 23.333 -6.16602 46.333 -8.49902 69s-3.5 45 -3.5 67l151 -15v54l-151 -13l15 206h-53l15 -206l-150 13v-54l151 15
c0 -22 -1.16699 -44.167 -3.5 -66.5s-5.16602 -45.5 -8.49902 -69.5c-2 -16.667 -3 -26.667 -3 -30s1 -13.333 3 -30c3.33301 -23.333 6.16602 -46.166 8.49902 -68.499s3.5 -44.833 3.5 -67.5l-151 15v-54l150 13l-15 -206h53l-15 206z" />
    <glyph glyph-name="bullet" unicode="&#x2022;" horiz-adv-x="500" 
d="M75 350c0 -24 4.5 -46.667 13.5 -68s21.5 -40 37.5 -56s34.667 -28.5 56 -37.5s44 -13.5 68 -13.5s46.667 4.5 68 13.5s40 21.5 56 37.5s28.5 34.667 37.5 56s13.5 44 13.5 68s-4.5 46.667 -13.5 68s-21.5 40 -37.5 56s-34.667 28.5 -56 37.5s-44 13.5 -68 13.5
s-46.667 -4.5 -68 -13.5s-40 -21.5 -56 -37.5s-28.5 -34.667 -37.5 -56s-13.5 -44 -13.5 -68z" />
    <glyph glyph-name="ellipsis" unicode="&#x2026;" horiz-adv-x="1000" 
d="M129 32c0 -10.667 3.66699 -19.667 11 -27s16.333 -11 27 -11s19.667 3.66699 27 11s11 16.333 11 27s-3.66699 19.667 -11 27s-16.333 11 -27 11s-19.667 -3.66699 -27 -11s-11 -16.333 -11 -27zM462 32c0 -10.667 3.66699 -19.667 11 -27s16.333 -11 27 -11
s19.667 3.66699 27 11s11 16.333 11 27s-3.66699 19.667 -11 27s-16.333 11 -27 11s-19.667 -3.66699 -27 -11s-11 -16.333 -11 -27zM795 32c0 -10.667 3.66699 -19.667 11 -27s16.333 -11 27 -11s19.667 3.66699 27 11s11 16.333 11 27s-3.66699 19.667 -11 27
s-16.333 11 -27 11s-19.667 -3.66699 -27 -11s-11 -16.333 -11 -27z" />
    <glyph glyph-name="perthousand" unicode="&#x2030;" horiz-adv-x="1000" 
d="M840 286c-20 0 -39.167 -3.83203 -57.5 -11.499s-34.5 -18.334 -48.5 -32.001s-25 -29.667 -33 -48s-12 -37.5 -12 -57.5s4 -39.167 12 -57.5s19 -34.333 33 -48s30.167 -24.334 48.5 -32.001s37.5 -11.5 57.5 -11.5s39.167 3.83301 57.5 11.5s34.5 18.5 48.5 32.5
s25 30 33 48s12 37 12 57s-4 39.167 -12 57.5s-19 34.333 -33 48s-30.167 24.334 -48.5 32.001s-37.5 11.5 -57.5 11.5zM951 137.001c0 -30.667 -10.667 -56.834 -32 -78.501s-47.666 -32.5 -78.999 -32.5s-57.666 10.833 -78.999 32.5s-32 47.834 -32 78.501
s10.667 56.834 32 78.501s47.666 32.5 78.999 32.5s57.666 -10.833 78.999 -32.5s32 -47.834 32 -78.501zM157 712.001c-20 0 -39.167 -3.83203 -57.5 -11.499s-34.5 -18.334 -48.5 -32.001s-25 -29.667 -33 -48s-12 -37.5 -12 -57.5s4 -39.167 12 -57.5s19 -34.333 33 -48
s30.167 -24.334 48.5 -32.001s37.5 -11.5 57.5 -11.5s39.167 3.83301 57.5 11.5s34.5 18.5 48.5 32.5s25 30 33 48s12 37 12 57s-4 39.167 -12 57.5s-19 34.333 -33 48s-30.167 24.334 -48.5 32.001s-37.5 11.5 -57.5 11.5zM268 563.002
c0 -30.667 -10.667 -56.834 -32 -78.501s-47.666 -32.5 -78.999 -32.5s-57.666 10.833 -78.999 32.5s-32 47.834 -32 78.501s10.667 56.834 32 78.501s47.666 32.5 78.999 32.5s57.666 -10.833 78.999 -32.5s32 -47.834 32 -78.501zM465 286.002
c-20 0 -39.167 -3.83203 -57.5 -11.499s-34.5 -18.334 -48.5 -32.001s-25 -29.667 -33 -48s-12 -37.5 -12 -57.5s4 -39.167 12 -57.5s19 -34.333 33 -48s30.167 -24.334 48.5 -32.001s37.5 -11.5 57.5 -11.5s39.167 3.83301 57.5 11.5s34.5 18.5 48.5 32.5s25 30 33 48
s12 37 12 57s-4 39.167 -12 57.5s-19 34.333 -33 48s-30.167 24.334 -48.5 32.001s-37.5 11.5 -57.5 11.5zM576 137.003c0 -30.667 -10.667 -56.834 -32 -78.501s-47.666 -32.5 -78.999 -32.5s-57.666 10.833 -78.999 32.5s-32 47.834 -32 78.501s10.667 56.834 32 78.501
s47.666 32.5 78.999 32.5s57.666 -10.833 78.999 -32.5s32 -47.834 32 -78.501zM100 -11.9971l464 724h-39l-462 -724h37z" />
    <glyph glyph-name="guilsinglleft" unicode="&#x2039;" horiz-adv-x="278" 
d="M218 82l-120 155l120 155h-47l-120 -155l120 -155h47z" />
    <glyph glyph-name="guilsinglright" unicode="&#x203a;" horiz-adv-x="278" 
d="M107 82l120 155l-120 155h-47l120 -155l-120 -155h47z" />
    <glyph glyph-name="trademark" unicode="&#x2122;" horiz-adv-x="990" 
d="M405 700h-320v-38h141v-374h38v374h141v38zM552 700h-67v-412h38v368h2l161 -368h18l161 368h2v-368h38v412h-67l-143 -346z" />
    </font>
</defs>
</svg>
